<svg width="15" height="14" viewBox="0 0 15 14" fill="none" xmlns="http://www.w3.org/2000/svg">
<path d="M7.89805 0.103027C6.53336 0.103027 5.19931 0.507705 4.06462 1.26589C2.92992 2.02407 2.04553 3.1017 1.52328 4.36251C1.00104 5.62332 0.864394 7.01068 1.13063 8.34915C1.39687 9.68762 2.05403 10.9171 3.01901 11.8821C3.984 12.847 5.21346 13.5042 6.55193 13.7704C7.8904 14.0367 9.27776 13.9 10.5386 13.3778C11.7994 12.8556 12.877 11.9712 13.6352 10.8365C14.3934 9.70176 14.798 8.36772 14.798 7.00303C14.798 6.09691 14.6196 5.19966 14.2728 4.36251C13.9261 3.52537 13.4178 2.76471 12.7771 2.12399C12.1364 1.48327 11.3757 0.975016 10.5386 0.628259C9.70142 0.281501 8.80417 0.103027 7.89805 0.103027ZM9.48605 9.84003L7.03705 8.05803C6.99486 8.02678 6.96059 7.98607 6.93697 7.93919C6.91335 7.8923 6.90105 7.84053 6.90105 7.78803V3.10603C6.90131 3.01753 6.93659 2.93273 6.99917 2.87015C7.06175 2.80756 7.14655 2.77229 7.23505 2.77203H8.56505C8.65355 2.77229 8.73835 2.80756 8.80093 2.87015C8.86351 2.93273 8.89879 3.01753 8.89905 3.10603V6.94003L10.665 8.22503C10.7005 8.25095 10.7304 8.2836 10.7532 8.32111C10.776 8.35861 10.7911 8.40024 10.7978 8.44361C10.8045 8.48698 10.8026 8.53124 10.7922 8.57386C10.7817 8.61649 10.763 8.65664 10.7371 8.69203L9.95305 9.77103C9.89992 9.84162 9.82111 9.88844 9.73371 9.90136C9.6463 9.91427 9.55733 9.89224 9.48605 9.84003Z" fill="#0187CE"/>
</svg>
