<svg width="23" height="16" viewBox="0 0 23 16" fill="none" xmlns="http://www.w3.org/2000/svg">
<path d="M4.38115 7.70472C4.5194 8.5922 5.20174 9.72051 6.33005 10.1174C6.7894 10.278 7.29781 10.2824 7.75716 10.113C8.86763 9.71159 9.57227 8.58774 9.71052 7.70026C9.85769 7.68688 10.0539 7.47727 10.268 6.7325C10.5579 5.71122 10.2501 5.55959 9.99148 5.58635C10.0405 5.44364 10.0807 5.30538 10.103 5.16713C10.5445 2.52252 9.24225 2.42886 9.24225 2.42886C9.24225 2.42886 9.02818 2.01411 8.45733 1.69747C8.07826 1.47002 7.54755 1.29609 6.84737 1.35853C6.61993 1.36745 6.40586 1.41205 6.20517 1.47894C5.94651 1.56814 5.71014 1.69301 5.50054 1.84018C5.23741 2.00519 4.99213 2.21034 4.7736 2.44224C4.4302 2.79456 4.12248 3.24945 3.98869 3.8203C3.8772 4.24397 3.90396 4.68994 3.99315 5.16713C4.01991 5.30538 4.05559 5.4481 4.10464 5.58635C3.84598 5.56405 3.53826 5.71122 3.82814 6.7325C4.03775 7.48619 4.23398 7.6958 4.38115 7.70472Z" fill="#0187CE"/>
<path d="M11.7838 11.3169C10.2274 10.7238 9.29086 10.1128 9.29086 10.1128L8.0912 13.9125L7.92619 14.4298L7.38656 12.9046C8.6219 11.1787 7.2929 11.0984 7.061 11.0984H7.05654H7.05208H7.04762H7.04316C6.81125 11.0984 5.48226 11.1831 6.7176 12.9046L6.17797 14.4298L6.01296 13.9125L4.82222 10.1128C4.82222 10.1128 3.89014 10.7238 2.32923 11.3169C0.612238 11.9413 0.719272 13.355 0.683594 15.9996H7.05208H7.06546H13.4295C13.3938 13.355 13.5008 11.9413 11.7838 11.3169Z" fill="#0187CE"/>
<path d="M11.6779 10.082C11.0536 8.98048 11.2097 7.55783 12.1507 6.61683C12.9088 5.85868 13.9791 5.60893 14.9469 5.87205L16.0797 4.73929C14.5678 4.01235 12.7215 4.21304 11.388 5.33689C11.4416 5.4573 11.4862 5.59109 11.5085 5.72934C11.5754 6.0995 11.5308 6.52763 11.3747 7.07618C11.2364 7.55783 11.0937 7.90569 10.9153 8.17327C10.7994 8.3472 10.6745 8.48099 10.5496 8.57911C10.4649 8.86899 10.3534 9.13657 10.2285 9.38632C10.5362 9.55133 11.0313 9.80999 11.6779 10.082Z" fill="#0187CE"/>
<path d="M18.1206 6.77734L16.9879 7.91011C17.2465 8.87341 16.9968 9.94821 16.2431 10.7064C15.5875 11.3619 14.6956 11.634 13.8438 11.5314C14.0221 11.799 14.1604 12.0978 14.263 12.4367C14.3165 12.6196 14.3611 12.8113 14.3968 13.012C15.4448 12.963 16.4794 12.5438 17.2777 11.741C18.6157 10.3986 18.8966 8.39622 18.1206 6.77734Z" fill="#0187CE"/>
<path d="M19.1473 5.75126C20.4451 7.95436 20.1463 10.8309 18.2554 12.7218C17.2163 13.7609 15.8739 14.3184 14.5137 14.3942C14.5226 14.7331 14.5271 15.0988 14.5315 15.4868C14.5315 15.6474 14.536 15.8169 14.536 15.9908V15.9952C16.2976 15.915 18.0369 15.2014 19.3837 13.8546C21.899 11.3393 22.2067 7.44595 20.3024 4.59619L19.1473 5.75126Z" fill="#0187CE"/>
<path d="M14.7677 7.27227C14.2236 7.04929 13.5725 7.15632 13.131 7.59783C12.5423 8.18651 12.5423 9.13644 13.131 9.72066C13.7196 10.3093 14.6696 10.3093 15.2538 9.72066C15.6953 9.27915 15.8023 8.62803 15.5794 8.08394L19.8919 3.77139L20.6099 3.86504L22.5098 1.9652L21.0737 1.77343L20.882 0.337402L18.9821 2.2417L19.0758 2.95972L14.7677 7.27227Z" fill="#0187CE"/>
<path d="M11.4411 3.62421C13.2071 2.66091 15.3701 2.68766 17.1094 3.7134L18.2689 2.55387C16.048 1.07324 13.2027 0.930533 10.8613 2.12574C10.8702 2.13912 10.8836 2.1525 10.8925 2.16588C11.1824 2.54941 11.3653 3.03998 11.4411 3.62421Z" fill="#0187CE"/>
</svg>
