<svg width="53" height="53" viewBox="0 0 53 53" fill="none" xmlns="http://www.w3.org/2000/svg">
<path d="M48.9628 16.5175C47.5502 14.9034 45.6447 13.8002 43.5415 13.3789C41.8402 7.18733 36.1621 2.625 29.4375 2.625C26.9903 2.62477 24.5822 3.23852 22.4337 4.41004C20.2852 5.58157 18.465 7.27342 17.1397 9.33065C16.4066 9.12794 15.6403 9.07437 14.8861 9.17312C14.1319 9.27187 13.4052 9.52093 12.749 9.90556C12.0928 10.2902 11.5204 10.8026 11.0658 11.4123C10.6111 12.0221 10.2835 12.7169 10.1021 13.4556C8.4933 13.8414 7.00907 14.6302 5.78915 15.7477C4.56922 16.8653 3.65372 18.2749 3.1288 19.8439C2.60388 21.4128 2.48681 23.0896 2.7886 24.7162C3.0904 26.3429 3.80113 27.8661 4.85392 29.1423L6.10679 28.1077C5.12646 26.919 4.50431 25.476 4.31293 23.9472C4.12154 22.4183 4.3688 20.8665 5.02587 19.4728C5.68294 18.0792 6.72273 16.901 8.02396 16.0759C9.32518 15.2507 10.8342 14.8126 12.375 14.8125C12.6218 14.8125 12.8706 14.8236 13.1146 14.8456L13.2604 13.2272C12.9681 13.2009 12.6702 13.1875 12.375 13.1875C12.2146 13.1875 12.0551 13.1915 11.8966 13.1994C12.2575 12.3644 12.8883 11.6748 13.6879 11.2412C14.4875 10.8075 15.4095 10.6549 16.3062 10.8078C16.102 11.2242 15.9148 11.6505 15.7497 12.0882L17.2701 12.6618C18.3447 9.81429 20.3841 7.43391 23.0331 5.93534C25.6821 4.43677 28.7729 3.91497 31.7671 4.46083C34.7613 5.00669 37.4692 6.58561 39.419 8.92258C41.3687 11.2596 42.437 14.2065 42.4375 17.25H44.0625C44.0624 16.5441 44.0114 15.8391 43.9098 15.1406C45.5918 15.6402 47.0681 16.6683 48.12 18.0727C49.1719 19.477 49.7435 21.1829 49.75 22.9375C49.7537 24.6103 49.2377 26.2429 48.2732 27.6096L49.6018 28.5453C50.8576 26.7584 51.4771 24.6018 51.3613 22.4209C51.2454 20.2401 50.4008 18.1612 48.9628 16.5175V16.5175Z" fill="#B05FD6"/>
<path d="M9.9375 38.375C10.3862 38.375 10.75 38.0112 10.75 37.5625C10.75 37.1138 10.3862 36.75 9.9375 36.75C9.48877 36.75 9.125 37.1138 9.125 37.5625C9.125 38.0112 9.48877 38.375 9.9375 38.375Z" fill="#B05FD6"/>
<path d="M12.375 38.375C12.8237 38.375 13.1875 38.0112 13.1875 37.5625C13.1875 37.1138 12.8237 36.75 12.375 36.75C11.9263 36.75 11.5625 37.1138 11.5625 37.5625C11.5625 38.0112 11.9263 38.375 12.375 38.375Z" fill="#B05FD6"/>
<path d="M14.8125 38.375C15.2612 38.375 15.625 38.0112 15.625 37.5625C15.625 37.1138 15.2612 36.75 14.8125 36.75C14.3638 36.75 14 37.1138 14 37.5625C14 38.0112 14.3638 38.375 14.8125 38.375Z" fill="#B05FD6"/>
<path d="M22.125 36.75H17.25V38.375H22.125V36.75Z" fill="#B05FD6"/>
<path d="M9.9375 31.875C10.3862 31.875 10.75 31.5112 10.75 31.0625C10.75 30.6138 10.3862 30.25 9.9375 30.25C9.48877 30.25 9.125 30.6138 9.125 31.0625C9.125 31.5112 9.48877 31.875 9.9375 31.875Z" fill="#B05FD6"/>
<path d="M12.375 31.875C12.8237 31.875 13.1875 31.5112 13.1875 31.0625C13.1875 30.6138 12.8237 30.25 12.375 30.25C11.9263 30.25 11.5625 30.6138 11.5625 31.0625C11.5625 31.5112 11.9263 31.875 12.375 31.875Z" fill="#B05FD6"/>
<path d="M14.8125 31.875C15.2612 31.875 15.625 31.5112 15.625 31.0625C15.625 30.6138 15.2612 30.25 14.8125 30.25C14.3638 30.25 14 30.6138 14 31.0625C14 31.5112 14.3638 31.875 14.8125 31.875Z" fill="#B05FD6"/>
<path d="M22.125 30.25H17.25V31.875H22.125V30.25Z" fill="#B05FD6"/>
<path d="M22.125 20.5H9.9375C9.07585 20.501 8.24977 20.8437 7.64049 21.453C7.03121 22.0623 6.68849 22.8883 6.6875 23.75V25.375C6.68744 25.8364 6.78588 26.2926 6.97623 26.7129C7.16658 27.1333 7.44446 27.5081 7.7913 27.8125C7.44446 28.1169 7.16658 28.4917 6.97623 28.9121C6.78588 29.3324 6.68744 29.7886 6.6875 30.25V31.875C6.68744 32.3364 6.78588 32.7926 6.97623 33.2129C7.16658 33.6333 7.44446 34.0081 7.7913 34.3125C7.44446 34.6169 7.16658 34.9917 6.97623 35.4121C6.78588 35.8324 6.68744 36.2886 6.6875 36.75V38.375C6.68849 39.2367 7.03121 40.0627 7.64049 40.672C8.24977 41.2813 9.07585 41.624 9.9375 41.625H22.125C22.9867 41.624 23.8127 41.2813 24.422 40.672C25.0313 40.0627 25.374 39.2367 25.375 38.375V36.75C25.3751 36.2886 25.2766 35.8324 25.0863 35.4121C24.8959 34.9917 24.618 34.6169 24.2712 34.3125C24.618 34.0081 24.8959 33.6333 25.0863 33.2129C25.2766 32.7926 25.3751 32.3364 25.375 31.875V30.25C25.3751 29.7886 25.2766 29.3324 25.0863 28.9121C24.8959 28.4917 24.618 28.1169 24.2712 27.8125C24.618 27.5081 24.8959 27.1333 25.0863 26.7129C25.2766 26.2926 25.3751 25.8364 25.375 25.375V23.75C25.374 22.8883 25.0313 22.0623 24.422 21.453C23.8127 20.8437 22.9867 20.501 22.125 20.5ZM23.75 36.75V38.375C23.7495 38.8058 23.5781 39.2189 23.2735 39.5235C22.9689 39.8281 22.5558 39.9995 22.125 40H9.9375C9.50667 39.9995 9.09364 39.8281 8.789 39.5235C8.48436 39.2189 8.31299 38.8058 8.3125 38.375V36.75C8.31299 36.3192 8.48436 35.9061 8.789 35.6015C9.09364 35.2969 9.50667 35.1255 9.9375 35.125H22.125C22.5558 35.1255 22.9689 35.2969 23.2735 35.6015C23.5781 35.9061 23.7495 36.3192 23.75 36.75V36.75ZM23.75 30.25V31.875C23.7495 32.3058 23.5781 32.7189 23.2735 33.0235C22.9689 33.3281 22.5558 33.4995 22.125 33.5H9.9375C9.50667 33.4995 9.09364 33.3281 8.789 33.0235C8.48436 32.7189 8.31299 32.3058 8.3125 31.875V30.25C8.31299 29.8192 8.48436 29.4061 8.789 29.1015C9.09364 28.7969 9.50667 28.6255 9.9375 28.625H22.125C22.5558 28.6255 22.9689 28.7969 23.2735 29.1015C23.5781 29.4061 23.7495 29.8192 23.75 30.25V30.25ZM9.9375 27C9.50667 26.9995 9.09364 26.8281 8.789 26.5235C8.48436 26.2189 8.31299 25.8058 8.3125 25.375V23.75C8.31299 23.3192 8.48436 22.9061 8.789 22.6015C9.09364 22.2969 9.50667 22.1255 9.9375 22.125H22.125C22.5558 22.1255 22.9689 22.2969 23.2735 22.6015C23.5781 22.9061 23.7495 23.3192 23.75 23.75V25.375C23.7495 25.8058 23.5781 26.2189 23.2735 26.5235C22.9689 26.8281 22.5558 26.9995 22.125 27H9.9375Z" fill="#B05FD6"/>
<path d="M9.9375 25.375C10.3862 25.375 10.75 25.0112 10.75 24.5625C10.75 24.1138 10.3862 23.75 9.9375 23.75C9.48877 23.75 9.125 24.1138 9.125 24.5625C9.125 25.0112 9.48877 25.375 9.9375 25.375Z" fill="#B05FD6"/>
<path d="M12.375 25.375C12.8237 25.375 13.1875 25.0112 13.1875 24.5625C13.1875 24.1138 12.8237 23.75 12.375 23.75C11.9263 23.75 11.5625 24.1138 11.5625 24.5625C11.5625 25.0112 11.9263 25.375 12.375 25.375Z" fill="#B05FD6"/>
<path d="M14.8125 25.375C15.2612 25.375 15.625 25.0112 15.625 24.5625C15.625 24.1138 15.2612 23.75 14.8125 23.75C14.3638 23.75 14 24.1138 14 24.5625C14 25.0112 14.3638 25.375 14.8125 25.375Z" fill="#B05FD6"/>
<path d="M22.125 23.75H17.25V25.375H22.125V23.75Z" fill="#B05FD6"/>
<path d="M44.0625 24.5625H37.5625C36.7008 24.5635 35.8748 24.9062 35.2655 25.5155C34.6562 26.1248 34.3135 26.9508 34.3125 27.8125V32.6875C34.3135 33.5492 34.6562 34.3752 35.2655 34.9845C35.8748 35.5938 36.7008 35.9365 37.5625 35.9375H44.0625C44.9242 35.9365 45.7502 35.5938 46.3595 34.9845C46.9688 34.3752 47.3115 33.5492 47.3125 32.6875V27.8125C47.3115 26.9508 46.9688 26.1248 46.3595 25.5155C45.7502 24.9062 44.9242 24.5635 44.0625 24.5625ZM45.6875 27.8125V28.2497C45.194 27.9629 44.6333 27.8121 44.0625 27.8125H42.319C42.017 27.8135 41.7207 27.73 41.4639 27.5712C41.207 27.4124 40.9997 27.1849 40.8656 26.9143L40.588 26.359C40.5587 26.3004 40.527 26.2437 40.4946 26.1875H44.0625C44.4933 26.188 44.9064 26.3594 45.211 26.664C45.5156 26.9686 45.687 27.3817 45.6875 27.8125V27.8125ZM45.6875 32.6875C45.687 33.1183 45.5156 33.5314 45.211 33.836C44.9064 34.1406 44.4933 34.312 44.0625 34.3125H37.5625C37.1317 34.312 36.7186 34.1406 36.414 33.836C36.1094 33.5314 35.938 33.1183 35.9375 32.6875V27.8125C35.938 27.3817 36.1094 26.9686 36.414 26.664C36.7186 26.3594 37.1317 26.188 37.5625 26.1875H37.681C37.983 26.1865 38.2793 26.27 38.5361 26.4288C38.793 26.5876 39.0003 26.8151 39.1344 27.0857L39.412 27.641C39.6804 28.1821 40.0949 28.6373 40.6087 28.9548C41.1225 29.2723 41.715 29.4396 42.319 29.4375H44.0625C44.4933 29.438 44.9064 29.6094 45.211 29.914C45.5156 30.2186 45.687 30.6317 45.6875 31.0625V32.6875Z" fill="#B05FD6"/>
<path d="M44.0625 40H37.5625C36.7008 40.001 35.8748 40.3437 35.2655 40.953C34.6562 41.5623 34.3135 42.3883 34.3125 43.25V48.125C34.3135 48.9867 34.6562 49.8127 35.2655 50.422C35.8748 51.0313 36.7008 51.374 37.5625 51.375H44.0625C44.9242 51.374 45.7502 51.0313 46.3595 50.422C46.9688 49.8127 47.3115 48.9867 47.3125 48.125V43.25C47.3115 42.3883 46.9688 41.5623 46.3595 40.953C45.7502 40.3437 44.9242 40.001 44.0625 40V40ZM45.6875 43.25V43.6872C45.194 43.4004 44.6333 43.2496 44.0625 43.25H42.319C42.017 43.251 41.7207 43.1675 41.4639 43.0087C41.207 42.8499 40.9997 42.6224 40.8656 42.3518L40.588 41.7965C40.5587 41.7379 40.527 41.6812 40.4946 41.625H44.0625C44.4933 41.6255 44.9064 41.7969 45.211 42.1015C45.5156 42.4061 45.687 42.8192 45.6875 43.25V43.25ZM45.6875 48.125C45.687 48.5558 45.5156 48.9689 45.211 49.2735C44.9064 49.5781 44.4933 49.7495 44.0625 49.75H37.5625C37.1317 49.7495 36.7186 49.5781 36.414 49.2735C36.1094 48.9689 35.938 48.5558 35.9375 48.125V43.25C35.938 42.8192 36.1094 42.4061 36.414 42.1015C36.7186 41.7969 37.1317 41.6255 37.5625 41.625H37.681C37.983 41.624 38.2793 41.7075 38.5361 41.8663C38.793 42.0251 39.0003 42.2526 39.1344 42.5232L39.412 43.0785C39.6804 43.6196 40.0949 44.0748 40.6087 44.3923C41.1225 44.7098 41.715 44.8771 42.319 44.875H44.0625C44.4933 44.8755 44.9064 45.0469 45.211 45.3515C45.5156 45.6561 45.687 46.0692 45.6875 46.5V48.125Z" fill="#B05FD6"/>
<path d="M26.1875 29.4375V31.0625H28.625V46.5C28.625 46.7155 28.7106 46.9221 28.863 47.0745C29.0154 47.2269 29.222 47.3125 29.4375 47.3125H32.6875V45.6875H30.25V31.0625H32.6875V29.4375H26.1875Z" fill="#B05FD6"/>
</svg>
