<svg width="15" height="15" viewBox="0 0 15 15" fill="none" xmlns="http://www.w3.org/2000/svg">
<path d="M1.54275 9.48621H0.21875V1.54421C0.21875 1.19307 0.358243 0.856304 0.606541 0.608006C0.854839 0.359707 1.1916 0.220215 1.54275 0.220215H12.1318V1.54421H1.54275V9.48621ZM7.49875 14.7802C7.41181 14.7802 7.32573 14.7631 7.24541 14.7298C7.1651 14.6966 7.09212 14.6478 7.03065 14.5863C6.96917 14.5248 6.92041 14.4519 6.88714 14.3716C6.85387 14.2912 6.83675 14.2051 6.83675 14.1182V12.1332H4.18975C3.8386 12.1332 3.50184 11.9937 3.25354 11.7454C3.00524 11.4971 2.86575 11.1604 2.86575 10.8092V4.19122C2.86575 3.84007 3.00524 3.5033 3.25354 3.25501C3.50184 3.00671 3.8386 2.86721 4.18975 2.86721H13.4558C13.8067 2.86748 14.1432 3.00709 14.3913 3.25536C14.6394 3.50363 14.7787 3.84024 14.7787 4.19122V10.8092C14.7787 11.1604 14.6393 11.4971 14.391 11.7454C14.1427 11.9937 13.8059 12.1332 13.4548 12.1332H10.7417L8.29275 14.5882C8.16778 14.7077 8.00263 14.7762 7.82975 14.7802H7.49875ZM5.51375 5.51521V6.83821H12.1318V5.51521H5.51375ZM5.51375 8.16222V9.48621H10.8088V8.16222H5.51375Z" fill="#0187CE"/>
</svg>
