<svg id="Capa_1" enable-background="new 0 0 508 508" height="512" viewBox="0 0 508 508" width="512" xmlns="http://www.w3.org/2000/svg"><g><path d="m60 69.674c0 5.523-4.477 10-10 10s-10-4.477-10-10 4.477-10 10-10 10 4.477 10 10zm45 0c0 5.523-4.477 10-10 10s-10-4.477-10-10 4.477-10 10-10 10 4.477 10 10zm45 0c0 5.523-4.477 10-10 10s-10-4.477-10-10 4.477-10 10-10 10 4.477 10 10zm65 306c-5.521 0-10 4.49-10 10s4.479 10 10 10c5.51 0 10-4.49 10-10s-4.49-10-10-10zm-15-226v147c0 5.522-4.478 10-10 10h-140c-5.522 0-10-4.478-10-10v-147c0-5.522 4.478-10 10-10h140c5.522 0 10 4.478 10 10zm-20 10h-120v127h120zm50 7h103c5.522 0 10-4.478 10-10s-4.478-10-10-10h-103c-5.522 0-10 4.478-10 10s4.478 10 10 10zm0 40h83c5.522 0 10-4.478 10-10s-4.478-10-10-10h-83c-5.522 0-10 4.478-10 10s4.478 10 10 10zm-180 120c-5.522 0-10 4.478-10 10s4.478 10 10 10h70c5.522 0 10-4.478 10-10s-4.478-10-10-10zm403.83-19.04c-4.77 13.52-4.75 28.49 0 42.08 1.88 5.38 7.88 8.41 13.97 5.72l11.34-5.28c13.41-6.22 28.86 2.68 28.86 17.93v42.59c0 11.046-8.954 20-20 20h-56.51l5.55 11.87c8.06 17.13-1.407 35.642-17.32 41.06-18.397 6.264-37.559 6.328-55.442-.004-15.839-5.608-25.375-23.926-17.323-41.052l5.553-11.875-56.508.001c-11.028 0-20-8.972-20-20v-15h-16c-5.521 0-10-4.49-10-10s4.479-10 10-10h16v-7.586c0-15.253 15.452-24.156 28.856-17.938l11.343 5.281c6.092 2.695 12.092-.338 13.971-5.715 4.749-13.588 4.766-28.558 0-42.085-1.699-4.823-7.654-8.57-13.696-5.843l-12.03 5.603c-12.992 5.832-28.444-2.813-28.444-18.587v-42.13c0-11.046 8.954-20 20-20h56.508l-5.553-11.874c-8.794-20.868 4.665-36.436 17.323-41.053 21.077-7.686 39.802-4.077 45.722-2.774v-51.299h-390v256h149.642c5.319 0 9.974 4 10.335 9.306.396 5.822-4.237 10.694-9.976 10.694h-160.001c-5.523 0-10-4.477-10-10v-336c0-16.569 13.431-30 30-30h370c16.569 0 30 13.431 30 30v130.309c8.17 7.408 13.39 19.762 7.04 34.821l-5.55 11.87h56.51c11.046 0 20 8.954 20 20v42.13c0 15.77-15.45 24.42-28.44 18.59l-12.03-5.61c-6.05-2.72-12 1.02-13.7 5.85zm-43.83-207.96v-50c0-5.514-4.486-10-10-10h-370c-5.514 0-10 4.486-10 10v50zm24.97 201.29c6.68-18.9 27.58-23.94 41-17.31l12.03 5.61v-42.59h-56.51c-15.62 0-23.99-16.31-18.11-28.47l5.55-11.88c2.65-6.39-.863-11.869-5.85-13.71-13.209-4.875-29.37-4.585-42.163-.001-5.001 1.792-8.498 7.32-5.845 13.715l5.553 11.874c5.875 12.166-2.496 28.473-18.117 28.473h-56.508v42.586l12.03-5.603c13.421-6.629 34.325-1.596 40.995 17.304 6.309 17.876 6.41 37.586 0 55.426-5.122 14.255-22.09 25.61-40.995 17.303l-12.029-5.602-.001 42.585h56.508c15.589 0 24.041 16.29 18.117 28.472l-5.553 11.874c-2.846 6.203 1.028 12.255 5.845 13.715 14.599 4.423 26.148 5.004 42.163 0 4.808-1.503 8.69-7.51 5.85-13.71l-5.55-11.88c-5.93-12.18 2.52-28.47 18.11-28.47h56.51v-42.59l-12.03 5.61c-18.91 8.3-35.87-3.05-41-17.31-6.41-17.841-6.3-37.551 0-55.421z"/></g></svg>