<svg width="18" height="22" viewBox="0 0 18 22" fill="none" xmlns="http://www.w3.org/2000/svg">
<path d="M16.7936 19.5751C16.4422 20.0578 15.8816 20.3432 15.2849 20.3432H13.3697V13.5952H10.742L11.7234 11.6708H10.194V10.5588C10.194 10.5588 13.2058 9.57568 12.4858 4.20737C12.4858 4.20737 9.40869 4.99327 7.7062 3.22428C7.7062 3.22428 7.05099 4.46819 5.67639 4.01018C5.67639 4.01018 4.95584 8.98697 7.7062 10.5588V11.6055L6.25363 11.6296L7.25621 13.598H4.62852V20.3455H2.71394C2.1172 20.3455 1.55601 20.0612 1.20519 19.5774C0.854377 19.0953 0.754635 18.4745 0.937495 17.907L2.69215 12.467C2.85839 11.9529 3.23328 11.5482 3.7062 11.3361C3.36627 9.67026 2.09657 2.30368 5.80823 0.738186C5.80823 0.738186 8.68929 -1.16035 12.8131 1.13199C12.8131 1.13199 16.0519 2.91589 14.2061 11.2994C14.7197 11.4994 15.1307 11.9196 15.3078 12.4659L17.0619 17.9059C17.2436 18.4728 17.1444 19.0936 16.7936 19.5751ZM3.7853 21.9999H14.2118V20.7571H3.7853V21.9999Z" fill="#0187CE"/>
</svg>
