<svg width="52" height="52" viewBox="0 0 52 52" fill="none" xmlns="http://www.w3.org/2000/svg">
<g clip-path="url(#clip0)">
<path d="M49.9533 38.3278H41.5596L41.2738 37.4745C40.907 36.3787 40.0952 35.7502 39.0467 35.7502H33.3113C32.1827 35.7502 31.2645 36.6683 31.2645 37.7968V42.8595H27.0157V34.5312H29.3855C29.9299 34.5312 30.3775 34.1018 30.4002 33.5578L30.502 31.1119C31.2245 30.877 31.9282 30.585 32.6065 30.239L34.409 31.8972C34.8096 32.2657 35.4297 32.253 35.8149 31.868L40.6025 27.0803C40.9875 26.6953 41.0004 26.0753 40.6317 25.6745L38.974 23.8727C39.32 23.1948 39.612 22.4906 39.847 21.7675L42.2922 21.6656C42.8362 21.643 43.2656 21.1954 43.2656 20.6509V13.8801C43.2656 13.3356 42.8362 12.8879 42.2923 12.8654L39.8465 12.7634C39.6117 12.041 39.3196 11.337 38.9736 10.6587L40.6317 8.85652C41.0003 8.45586 40.9874 7.83572 40.6025 7.4507L35.8149 2.66296C35.4297 2.27794 34.8097 2.26514 34.409 2.63371L32.6067 4.29201C31.9287 3.9462 31.2248 3.6542 30.502 3.41929L30.4002 0.973371C30.3774 0.429405 29.9298 0 29.3854 0H22.6146C22.0702 0 21.6226 0.429405 21.5999 0.973371L21.498 3.41929C20.7755 3.6541 20.0718 3.94609 19.3935 4.29222L17.591 2.63391C17.1903 2.26524 16.5702 2.27814 16.1851 2.66316L11.3975 7.4509C11.0125 7.83592 10.9997 8.45596 11.3683 8.85672L13.0259 10.6585C12.68 11.3365 12.388 12.0406 12.153 12.7637L9.70771 12.8656C9.16374 12.8882 8.73434 13.3358 8.73434 13.8803V20.6511C8.73434 21.1956 9.16374 21.6433 9.70761 21.6658L12.1536 21.7678C12.3884 22.4901 12.6804 23.1939 13.0265 23.8723L11.3681 25.6747C10.9995 26.0754 11.0125 26.6955 11.3974 27.0805L16.185 31.8682C16.5701 32.253 17.1902 32.266 17.5909 31.8974L19.3927 30.2398C20.0707 30.5857 20.7747 30.8776 21.4979 31.1127L21.5997 33.558C21.6224 34.102 22.07 34.5314 22.6144 34.5314H24.9842V42.8597H20.7353V40.3747C20.7353 39.2461 19.8172 38.328 18.6886 38.328H10.2949L10.0091 37.4746C9.6422 36.3788 8.83042 35.7504 7.78199 35.7504H2.04678C0.918223 35.7502 0 36.6683 0 37.7968V49.9533C0 51.0818 0.918121 51.9999 2.04668 51.9999H18.6888C19.8174 51.9999 20.7355 51.0818 20.7355 49.9533V44.8907H31.2644V49.9533C31.2644 51.0818 32.1825 51.9999 33.311 51.9999H49.9533C51.0819 51.9999 52 51.0818 52 49.9533V40.3745C52 39.2459 51.0819 38.3278 49.9533 38.3278ZM23.5888 32.5L23.4973 30.3033C23.4788 29.8598 23.1745 29.4797 22.7458 29.3647C21.6977 29.0833 20.6889 28.665 19.7473 28.1212C19.3628 27.8994 18.8786 27.9527 18.5518 28.2534L16.9328 29.7429L13.5229 26.333L15.013 24.7133C15.3136 24.3866 15.3672 23.9024 15.1451 23.5178C14.6009 22.5751 14.1825 21.5665 13.9018 20.52C13.7868 20.0912 13.4067 19.7868 12.9632 19.7685L10.7658 19.6769V14.8545L12.9625 14.763C13.406 14.7445 13.786 14.4402 13.9011 14.0115C14.1824 12.9635 14.6007 11.9546 15.1445 11.0131C15.3666 10.6286 15.3131 10.1443 15.0125 9.8176L13.5229 8.1985L16.9328 4.78855L18.5525 6.27867C18.8792 6.57919 19.3632 6.63282 19.7478 6.4109C20.6906 5.86663 21.6992 5.4483 22.7457 5.16758C23.1744 5.05261 23.4788 4.67247 23.4973 4.22894L23.5888 2.03124H28.4112L28.5028 4.22864C28.5213 4.67216 28.8257 5.05231 29.2544 5.16728C30.3016 5.4483 31.3102 5.86653 32.2524 6.4104C32.6369 6.63251 33.121 6.57889 33.4479 6.27826L35.0674 4.78825L38.4773 8.19819L36.9874 9.8176C36.6868 10.1443 36.6332 10.6284 36.8553 11.013C37.3994 11.9557 37.8178 12.9645 38.0986 14.0112C38.2137 14.44 38.5937 14.7444 39.0372 14.7628L41.2344 14.8543V19.6767L39.0378 19.7681C38.5943 19.7866 38.2143 20.0909 38.0992 20.5196C37.8179 21.5676 37.3995 22.5765 36.8558 23.518C36.6337 23.9025 36.6872 24.3868 36.9878 24.7135L38.4774 26.3326L35.0675 29.7425L33.4478 28.2523C33.121 27.9518 32.637 27.8981 32.2523 28.1202C31.3096 28.6644 30.301 29.0828 29.2544 29.3635C28.8257 29.4785 28.5213 29.8586 28.5028 30.3022L28.4112 32.4996H27.0156V26.8925C30.4268 26.7542 35.1406 25.9005 35.1406 23.3589V11.1718C35.1406 8.36587 29.395 7.61726 26 7.61726C22.605 7.61726 16.8594 8.36587 16.8594 11.1718V23.3593C16.8594 25.9009 21.5732 26.7546 24.9844 26.8929V32.5H23.5888ZM26 14.7265C28.0952 14.7265 31.1215 14.4372 33.1093 13.5395V15.1932C31.2895 17.2518 20.674 17.2337 18.8907 15.1932V13.5395C20.8785 14.4372 23.9048 14.7265 26 14.7265ZM18.8907 17.6021C22.9566 19.212 29.0415 19.2126 33.1093 17.6021V19.2558C31.2894 21.3144 20.6742 21.2964 18.8907 19.2558V17.6021ZM26 12.6953C21.6863 12.6953 19.2891 11.6553 18.918 11.1717C20.8689 9.16943 31.1655 9.18609 33.082 11.1717C32.7109 11.6553 30.3137 12.6953 26 12.6953ZM18.8907 21.6646C22.9566 23.2745 29.0415 23.2751 33.1093 21.6646V23.3188C31.2853 25.3766 20.6781 25.3585 18.8907 23.3188V21.6646ZM18.7043 49.9534C18.7062 49.9983 2.06222 49.9534 2.04668 49.9689C2.01601 49.956 2.01773 37.7943 2.04668 37.7815H7.7822C7.86588 37.7815 7.97009 37.7815 8.08323 38.1195L8.60119 39.6661C8.73983 40.0801 9.12759 40.3592 9.5642 40.3592C9.57974 40.3746 18.7062 40.3295 18.7042 40.3746C18.7043 40.3745 18.7043 49.9534 18.7043 49.9534ZM49.9688 49.9534C49.9707 49.9983 33.3267 49.9534 33.3111 49.9689C33.2805 49.956 33.2822 37.7943 33.3111 37.7815H39.0467C39.1304 37.7815 39.2346 37.7815 39.3477 38.1195L39.8657 39.6661C40.0043 40.0801 40.3921 40.3592 40.8287 40.3592C40.8442 40.3746 49.9707 40.3295 49.9687 40.3746C49.9688 40.3745 49.9688 49.9534 49.9688 49.9534Z" fill="#FFB74B"/>
</g>
<defs>
<clipPath id="clip0">
<rect width="52" height="52" fill="white"/>
</clipPath>
</defs>
</svg>
