<svg id="Layer_1" enable-background="new 0 0 512.002 512.002" height="512" viewBox="0 0 512.002 512.002" width="512" xmlns="http://www.w3.org/2000/svg"><path d="m491.85 377.383h-82.646l-2.814-8.402c-3.612-10.789-11.605-16.978-21.929-16.978h-56.472c-11.112 0-20.153 9.04-20.153 20.152v49.848h-41.834v-82.002h23.333c5.361 0 9.768-4.228 9.991-9.584l1.003-24.083c7.113-2.313 14.042-5.188 20.721-8.595l17.748 16.327c3.944 3.628 10.05 3.503 13.842-.288l47.14-47.14c3.791-3.791 3.918-9.896.288-13.842l-16.322-17.741c3.406-6.675 6.281-13.608 8.595-20.728l24.076-1.003c5.356-.223 9.584-4.63 9.584-9.991v-66.667c0-5.361-4.228-9.769-9.583-9.991l-24.082-1.004c-2.312-7.113-5.188-14.045-8.594-20.723l16.326-17.745c3.629-3.945 3.502-10.051-.288-13.842l-47.14-47.141c-3.792-3.791-9.897-3.917-13.842-.288l-17.746 16.328c-6.676-3.405-13.607-6.28-20.723-8.593l-1.003-24.083c-.224-5.356-4.631-9.584-9.992-9.584h-66.666c-5.361 0-9.768 4.228-9.991 9.584l-1.004 24.083c-7.113 2.312-14.042 5.187-20.721 8.595l-17.748-16.328c-3.945-3.63-10.051-3.503-13.842.288l-47.14 47.141c-3.791 3.791-3.917 9.896-.288 13.842l16.322 17.741c-3.406 6.675-6.281 13.608-8.595 20.728l-24.077 1.003c-5.356.223-9.584 4.63-9.584 9.991v66.667c0 5.361 4.228 9.769 9.583 9.991l24.084 1.004c2.312 7.112 5.187 14.042 8.594 20.721l-16.328 17.747c-3.63 3.945-3.502 10.051.288 13.842l47.14 47.14c3.791 3.789 9.897 3.917 13.842.288l17.741-16.321c6.676 3.406 13.608 6.28 20.728 8.595l1.003 24.077c.223 5.356 4.63 9.584 9.991 9.584h23.333v82.002h-41.835v-24.468c0-11.112-9.04-20.152-20.152-20.152h-82.646l-2.814-8.403c-3.613-10.789-11.606-16.977-21.929-16.977h-56.47c-11.112-.002-20.153 9.038-20.153 20.15v119.695c0 11.111 9.04 20.151 20.152 20.151h163.862c11.112 0 20.152-9.04 20.152-20.151v-49.848h103.669v49.848c0 11.111 9.04 20.151 20.152 20.151h163.863c11.112 0 20.152-9.04 20.152-20.151v-94.315c0-11.112-9.04-20.152-20.152-20.152zm-259.59-57.382-.901-21.629c-.182-4.367-3.178-8.109-7.399-9.242-10.32-2.77-20.253-6.889-29.524-12.243-3.786-2.184-8.554-1.659-11.771 1.301l-15.941 14.666-33.575-33.574 14.672-15.948c2.96-3.217 3.487-7.984 1.301-11.771-5.359-9.282-9.478-19.213-12.242-29.517-1.133-4.222-4.875-7.219-9.242-7.4l-21.636-.901v-47.483l21.629-.901c4.367-.182 8.109-3.178 9.242-7.399 2.77-10.319 6.888-20.253 12.243-29.523 2.187-3.786 1.66-8.554-1.3-11.771l-14.667-15.942 33.575-33.575 15.947 14.672c3.217 2.959 7.983 3.487 11.77 1.302 9.283-5.359 19.214-9.478 29.518-12.242 4.221-1.132 7.218-4.875 7.4-9.242l.901-21.639h47.482l.902 21.636c.182 4.367 3.179 8.11 7.4 9.242 10.311 2.767 20.242 6.885 29.519 12.24 3.786 2.187 8.553 1.659 11.771-1.301l15.946-14.671 33.575 33.575-14.67 15.945c-2.96 3.217-3.487 7.983-1.301 11.77 5.358 9.282 9.477 19.215 12.242 29.521 1.133 4.222 4.875 7.219 9.242 7.4l21.634.901v47.483l-21.628.9c-4.367.182-8.109 3.178-9.242 7.399-2.77 10.319-6.889 20.253-12.243 29.523-2.187 3.786-1.66 8.554 1.3 11.771l14.667 15.942-33.575 33.574-15.948-14.672c-3.217-2.959-7.983-3.488-11.771-1.301-9.282 5.358-19.213 9.478-29.518 12.242-4.221 1.132-7.218 4.875-7.4 9.242l-.902 21.636h-13.741v-55.208c33.587-1.362 80-9.768 80-34.793v-119.996c0-27.628-56.572-34.999-90-34.999s-90 7.371-90 34.999v120c0 25.025 46.413 33.431 80 34.793v55.208zm23.741-175.001c20.63 0 50.427-2.849 70-11.687v16.282c-17.919 20.27-122.441 20.091-140 0v-16.282c19.573 8.838 49.37 11.687 70 11.687zm-70 28.314c40.034 15.851 99.947 15.857 140 0v16.282c-17.92 20.27-122.439 20.092-140 0zm70-48.314c-42.474 0-66.077-10.24-69.731-15.001 19.209-19.715 120.592-19.551 139.462 0-3.654 4.761-27.257 15.001-69.731 15.001zm-70 88.314c40.034 15.851 99.947 15.857 140 0v16.287c-17.96 20.262-122.4 20.084-140 0zm-1.835 278.537c.019.442-163.861 0-164.014.152-.302-.127-.285-119.873 0-119.999h56.473c.824 0 1.85 0 2.964 3.328 0 0 5.1 15.228 5.1 15.228 1.365 4.076 5.183 6.824 9.482 6.824.153.152 90.014-.292 89.994.152.001-.001.001 94.315.001 94.315zm307.836 0c.019.442-163.861 0-164.014.152-.302-.127-.285-119.873 0-119.999h56.473c.824 0 1.85 0 2.964 3.328 0 0 5.1 15.228 5.1 15.228 1.365 4.076 5.183 6.824 9.482 6.824.153.152 90.014-.292 89.994.152.001-.001.001 94.315.001 94.315z"/></svg>