<svg width="19" height="19" viewBox="0 0 19 19" fill="none" xmlns="http://www.w3.org/2000/svg">
<g clip-path="url(#clip0)">
<path d="M9.5 15.1631C5.86985 15.1631 2.57784 13.177 0.148665 9.95106C-0.0495551 9.68676 -0.0495551 9.31753 0.148665 9.05324C2.57784 5.82341 5.86985 3.83732 9.5 3.83732C13.1302 3.83732 16.4222 5.82341 18.8513 9.04935C19.0496 9.31364 19.0496 9.68288 18.8513 9.94717C16.4222 13.177 13.1302 15.1631 9.5 15.1631ZM9.76041 5.51248C7.35067 5.3609 5.36069 7.34699 5.51227 9.76061C5.63665 11.7506 7.24962 13.3636 9.23959 13.4879C11.6493 13.6395 13.6393 11.6534 13.4877 9.2398C13.3595 7.25371 11.7465 5.64074 9.76041 5.51248ZM9.63992 7.35476C8.34177 7.27314 7.26905 8.34197 7.35456 9.64012C7.42063 10.7128 8.29124 11.5796 9.36397 11.6495C10.6621 11.7312 11.7348 10.6623 11.6493 9.36417C11.5794 8.28756 10.7088 7.42083 9.63992 7.35476Z" fill="#0187CE"/>
</g>
<defs>
<clipPath id="clip0">
<rect width="19" height="19" fill="white" transform="matrix(1 0 0 -1 0 19)"/>
</clipPath>
</defs>
</svg>
