<svg width="18" height="21" viewBox="0 0 18 21" fill="none" xmlns="http://www.w3.org/2000/svg">
<path d="M6.26562 0.992188C5.85141 0.992188 5.51562 1.32797 5.51562 1.74219V3.5H4.85159C3.42162 3.5 2.15966 4.43465 1.74277 5.8025L1.68258 6H0.75C0.33579 6 0 6.33579 0 6.75C0 7.16421 0.33579 7.5 0.75 7.5H1.28302L1.08121 8.327C0.43291 8.72189 0 9.4354 0 10.25V18.75C0 19.7165 0.7835 20.5 1.75 20.5H3.25C4.2165 20.5 5 19.7165 5 18.75V17.5H13V18.75C13 19.7165 13.7835 20.5 14.75 20.5H16.25C17.2165 20.5 18 19.7165 18 18.75V10.25C18 9.4347 17.5663 8.72063 16.9171 8.32596L16.7106 7.5H17.25C17.6642 7.5 18 7.16421 18 6.75C18 6.33579 17.6642 6 17.25 6H16.308L16.2529 5.81612C15.8404 4.44142 14.5751 3.5 13.1399 3.5H12.4844V1.74219C12.4844 1.32797 12.1486 0.992188 11.7344 0.992188H6.26562ZM4.85159 5H13.1399C13.9127 5 14.5941 5.50692 14.8161 6.24714L15.0266 6.94881L15.2894 8H2.70503L2.96165 6.94839L3.17761 6.23981C3.40209 5.50327 4.08161 5 4.85159 5ZM1.5 17.5H3.5V18.75C3.5 18.8881 3.38807 19 3.25 19H1.75C1.61193 19 1.5 18.8881 1.5 18.75V17.5ZM14.5 17.5H16.5V18.75C16.5 18.8881 16.3881 19 16.25 19H14.75C14.6119 19 14.5 18.8881 14.5 18.75V17.5ZM5.00537 12C5.00537 12.5523 4.55766 13 4.00537 13C3.45309 13 3.00537 12.5523 3.00537 12C3.00537 11.4477 3.45309 11 4.00537 11C4.55766 11 5.00537 11.4477 5.00537 12ZM13.9998 13C13.4475 13 12.9998 12.5523 12.9998 12C12.9998 11.4477 13.4475 11 13.9998 11C14.552 11 14.9998 11.4477 14.9998 12C14.9998 12.5523 14.552 13 13.9998 13Z" fill="#0187CE"/>
</svg>
