<svg width="98" height="95" viewBox="0 0 98 95" fill="none" xmlns="http://www.w3.org/2000/svg">
<path d="M77.4429 10.411C92.4692 18.6054 105.881 28.8398 84.5771 54.1408C63.2729 79.4419 42.873 108.242 23.6021 75.3942C4.33116 42.5468 -1.66392 15.8104 18.3745 9.70607C38.4129 3.60172 62.4172 2.21826 77.4429 10.411Z" fill="#EFCCFF"/>
<path d="M62.9709 47.1051C62.9753 47.0554 62.9719 47.0053 62.9609 46.9565L58.4492 30.4038C58.4429 30.3802 58.4345 30.3572 58.4243 30.335C58.1159 28.9683 56.901 27.9983 55.5 28H40.5C39.0818 27.9982 37.857 28.9916 37.5659 30.3797L37.5586 30.4038L33.1606 46.5393C33.1182 46.6622 33.084 46.7878 33.0582 46.9152L33.0469 46.9565C33.0444 46.9756 33.0431 46.9949 33.043 47.0141C33.0155 47.1746 33.0011 47.3371 33 47.5V48.5C33.0018 50.1561 34.3439 51.4982 36 51.5H46V53H43.5C42.8664 53.002 42.3026 53.4024 42.0921 54H36.5C35.6716 54 35 54.6716 35 55.5C35 56.3284 35.6715 57 36.5 57H42.0922C42.3026 57.5976 42.8664 57.9981 43.5 58.0001H52.5C53.1336 57.9981 53.6974 57.5976 53.9079 57H59.5C60.3284 57 61 56.3285 61 55.5C61 54.6716 60.3284 54 59.5 54H53.9079C53.6974 53.4024 53.1336 53.002 52.5 53H50V51.5H60C61.6561 51.4982 62.9982 50.1561 63 48.5V47.5C62.999 47.3679 62.9893 47.236 62.9709 47.1051ZM42 56H36.5C36.2239 55.9997 36.0002 55.7761 36 55.5C36.0003 55.224 36.2239 55.0003 36.5 55.0001H42V56ZM54 55H59.5C59.7761 55.0003 59.9998 55.2239 60 55.5C59.9997 55.776 59.776 55.9997 59.5 56H54V55ZM38.5078 30.7239C38.5207 30.6923 38.5303 30.6595 38.5366 30.626C38.7137 29.6816 39.5392 28.9979 40.5 29H55.5C56.4608 28.9979 57.2864 29.6816 57.4634 30.626C57.4721 30.6726 57.4878 30.7177 57.5098 30.7598L61.3423 44.8209C60.9261 44.6103 60.4664 44.5004 60 44.5H36C35.537 44.5004 35.0805 44.6088 34.6668 44.8165L38.5078 30.7239ZM52.5 54C52.776 54.0003 52.9997 54.224 53 54.5V56.5C52.9997 56.776 52.776 56.9997 52.5 57H43.5C43.224 56.9997 43.0003 56.776 43 56.5V54.5C43.0003 54.224 43.224 54.0003 43.5 54H52.5V54ZM47 53V51.5H49V53H47ZM62 48.5C61.9988 49.6041 61.1041 50.4988 60 50.5H58V48C58 47.7238 57.7762 47.5 57.5 47.5C57.2239 47.5 57.0001 47.7239 57.0001 48V50.5H56V48C56 47.7238 55.7762 47.5 55.5001 47.5C55.2239 47.5 55.0001 47.7239 55.0001 48V50.5H54V48C54 47.7238 53.7762 47.5 53.5 47.5C53.2239 47.5 53 47.7239 53 48V50.5H52V48C52 47.7238 51.7762 47.5 51.5 47.5C51.2239 47.5 51.0001 47.7239 51.0001 48V50.5H36.0001C34.896 50.4988 34.0013 49.6041 34.0001 48.5V47.5C34.0008 47.3733 34.0136 47.247 34.0382 47.1227L34.0759 46.9845C34.3078 46.1115 35.0968 45.5028 36.0001 45.5H60.0001C61.1041 45.5012 61.9989 46.3959 62 47.5V48.5H62Z" fill="#B05FD6"/>
<path d="M37.5 46.5C36.6716 46.5 36 47.1716 36 48C36 48.8284 36.6715 49.5 37.5 49.5C38.3285 49.5 39 48.8284 39 48C38.9991 47.172 38.328 46.5009 37.5 46.5ZM37.5 48.5C37.2238 48.5 37 48.2762 37 48.0001C37 47.7239 37.2238 47.5001 37.5 47.5001C37.7762 47.5001 38 47.724 38 48.0001C37.9997 48.276 37.776 48.4997 37.5 48.5Z" fill="#B05FD6"/>
<path d="M48 42.5C52.1357 42.5 55.5 39.9207 55.5 36.75C55.5 33.5794 52.1357 31 48 31C43.8643 31 40.5 33.5794 40.5 36.75C40.5 39.9206 43.8643 42.5 48 42.5ZM48 32C51.584 32 54.5 34.1309 54.5 36.75C54.5 39.3692 51.584 41.5001 48 41.5001C44.416 41.5001 41.5 39.3692 41.5 36.75C41.5 34.1308 44.416 32 48 32Z" fill="#B05FD6"/>
<path d="M45.0911 38.6819H50.9095C51.7949 38.6491 52.4968 37.9236 52.5003 37.0376C52.5038 36.1516 51.8078 35.4206 50.9226 35.3807C50.6477 34.561 49.8828 34.0065 49.0184 34C48.7563 34.0004 48.4969 34.0534 48.2556 34.156C47.8798 33.6731 47.3031 33.3895 46.6912 33.3865C45.571 33.4101 44.6728 34.3205 44.6643 35.4409C43.9666 35.6543 43.4928 36.3017 43.5002 37.0313C43.4852 37.9258 44.1966 38.6641 45.0911 38.6819ZM45.1282 36.3824H45.1316C45.2958 36.4092 45.4625 36.3515 45.575 36.2288C45.6881 36.1071 45.7334 35.9373 45.6961 35.7755C45.6747 35.6842 45.6639 35.5908 45.6639 35.4971C45.6425 34.9074 46.1016 34.4112 46.6912 34.3866C47.1036 34.3953 47.4707 34.6503 47.6228 35.0338C47.6842 35.1792 47.8106 35.2871 47.9639 35.3249C48.1172 35.3626 48.2793 35.3257 48.4011 35.2254C48.574 35.0802 48.7925 35.0004 49.0183 35.0001C49.5661 35.0171 50.0098 35.4502 50.0403 35.9974C50.0549 36.1544 50.1427 36.2952 50.2771 36.3776C50.4115 36.4599 50.5769 36.4741 50.7234 36.4159C50.7825 36.3924 50.8457 36.3804 50.9094 36.3807C51.2445 36.4131 51.5002 36.6947 51.5002 37.0314C51.5002 37.368 51.2445 37.6496 50.9094 37.682H45.0911C44.7491 37.65 44.4907 37.3581 44.5005 37.0148C44.5104 36.6716 44.785 36.3948 45.1282 36.3824Z" fill="#B05FD6"/>
</svg>
