<svg width="17" height="17" viewBox="0 0 17 17" fill="none" xmlns="http://www.w3.org/2000/svg">
<g clip-path="url(#clip0)">
<path d="M16.9954 17.0008V17.0001H16.9997V10.7653C16.9997 7.71526 16.343 5.36572 12.7773 5.36572C11.0631 5.36572 9.91279 6.30639 9.44316 7.19818H9.39358V5.65047H6.0127V17.0001H9.53312V11.3802C9.53312 9.90047 9.81362 8.46964 11.6461 8.46964C13.4516 8.46964 13.4785 10.1583 13.4785 11.4751V17.0008H16.9954Z" fill="#BABABA"/>
<path d="M0.280273 5.65137H3.80494V17.001H0.280273V5.65137Z" fill="#BABABA"/>
<path d="M2.04142 0.000976562C0.914458 0.000976562 0 0.915435 0 2.04239C0 3.16935 0.914458 4.10294 2.04142 4.10294C3.16837 4.10294 4.08283 3.16935 4.08283 2.04239C4.08212 0.915435 3.16767 0.000976563 2.04142 0.000976563V0.000976562Z" fill="#BABABA"/>
</g>
<defs>
<clipPath id="clip0">
<rect width="17" height="17" fill="white" transform="translate(0 0.000976562)"/>
</clipPath>
</defs>
</svg>
