<svg width="123" height="122" viewBox="0 0 123 122" fill="none" xmlns="http://www.w3.org/2000/svg">
<path d="M18.9023 79.6699C9.74995 65.207 2.99958 49.7454 33.9129 37.982C64.8263 26.2186 96.6491 10.9578 97.5336 49.0306C98.4182 87.1033 90.6682 113.385 70.188 108.985C49.7078 104.584 28.0549 94.1309 18.9023 79.6699Z" fill="#BCEDFD"/>
<path d="M66.2813 65.5941C65.9104 65.5941 65.5479 65.7041 65.2396 65.9101C64.9312 66.1161 64.6909 66.409 64.549 66.7516C64.4071 67.0942 64.3699 67.4712 64.4423 67.8349C64.5146 68.1986 64.6932 68.5327 64.9554 68.7949C65.2177 69.0572 65.5517 69.2357 65.9155 69.3081C66.2792 69.3804 66.6562 69.3433 66.9988 69.2014C67.3414 69.0595 67.6342 68.8192 67.8403 68.5108C68.0463 68.2025 68.1563 67.84 68.1563 67.4691C68.1563 66.9718 67.9587 66.4949 67.6071 66.1433C67.2555 65.7917 66.7785 65.5941 66.2813 65.5941ZM66.2813 68.4066C66.0958 68.4066 65.9146 68.3516 65.7604 68.2486C65.6062 68.1456 65.4861 67.9992 65.4151 67.8279C65.3442 67.6566 65.3256 67.4681 65.3618 67.2862C65.3979 67.1044 65.4872 66.9373 65.6183 66.8062C65.7495 66.6751 65.9165 66.5858 66.0984 66.5496C66.2802 66.5135 66.4687 66.532 66.64 66.603C66.8113 66.6739 66.9578 66.7941 67.0608 66.9483C67.1638 67.1024 67.2188 67.2837 67.2188 67.4691C67.2188 67.7178 67.12 67.9562 66.9442 68.132C66.7684 68.3078 66.5299 68.4066 66.2813 68.4066Z" fill="#1692BA"/>
<path d="M72.8438 72.6255C72.8438 72.9984 72.6956 73.3561 72.4319 73.6199C72.1681 73.8836 71.8105 74.0317 71.4375 74.0317H67.6875V74.9692H71.4375C72.0589 74.9685 72.6546 74.7213 73.094 74.2819C73.5333 73.8426 73.7805 73.2469 73.7812 72.6255V67.0005H72.8438V72.6255Z" fill="#1692BA"/>
<path d="M73.3125 60.4379H72.8062C72.8327 60.2831 72.8452 60.1262 72.8438 59.9692C72.8428 59.0992 72.4967 58.2652 71.8816 57.6501C71.2665 57.0349 70.4324 56.6889 69.5625 56.6879C68.8696 56.6855 68.1943 56.9057 67.6359 57.3161C67.0015 56.6642 66.2058 56.1919 65.3297 55.9473C65.2605 55.1278 64.8865 54.3641 64.2816 53.8069C63.6767 53.2498 62.8849 52.9397 62.0625 52.9379C61.3696 52.9355 60.6943 53.1557 60.1359 53.5661C59.449 52.8579 58.5734 52.3617 57.6129 52.1364C56.6524 51.911 55.6474 51.9659 54.7172 52.2945C53.787 52.6232 52.9706 53.2118 52.3649 53.9905C51.7592 54.7693 51.3896 55.7054 51.3 56.6879H50.8125C50.0666 56.6879 49.3512 56.9842 48.8238 57.5117C48.2963 58.0391 48 58.7545 48 59.5004C48 60.2463 48.2963 60.9617 48.8238 61.4892C49.3512 62.0166 50.0666 62.3129 50.8125 62.3129H55.6641C55.5124 62.7369 55.465 63.1911 55.5258 63.6372C55.5867 64.0834 55.7541 64.5083 56.0139 64.8761C56.2736 65.2439 56.6181 65.5437 57.0182 65.7503C57.4183 65.9569 57.8622 66.0641 58.3125 66.0629H62.475L62.4187 66.077C62.3171 66.1021 62.2268 66.1605 62.1623 66.2429C62.0977 66.3253 62.0626 66.427 62.0625 66.5317V67.0004H50.3438C50.0844 66.9999 49.83 67.0716 49.6089 67.2073C49.3879 67.3431 49.209 67.5376 49.0922 67.7692C48.9922 67.9669 48.9392 68.1851 48.9375 68.4067V77.3129H48.525C48.4569 77.3133 48.3897 77.3285 48.3281 77.3575C48.2665 77.3864 48.2119 77.4285 48.1682 77.4807C48.1245 77.5329 48.0927 77.594 48.0749 77.6597C48.0572 77.7255 48.054 77.7943 48.0656 77.8614L48.2812 79.0614C48.2817 79.0789 48.2848 79.0963 48.2906 79.1129C48.3772 79.4042 48.5552 79.6599 48.7983 79.8422C49.0414 80.0246 49.3367 80.1238 49.6406 80.1254H66.0469C66.3508 80.1238 66.6461 80.0246 66.8892 79.8422C67.1323 79.6599 67.3103 79.4042 67.3969 79.1129C67.4027 79.0963 67.4058 79.0789 67.4062 79.0614L67.6219 77.8614C67.6335 77.7943 67.6303 77.7255 67.6126 77.6597C67.5948 77.594 67.563 77.5329 67.5193 77.4807C67.4756 77.4285 67.421 77.3864 67.3594 77.3575C67.2978 77.3285 67.2306 77.3133 67.1625 77.3129H66.75V71.6879H67.2188C67.3234 71.6878 67.4251 71.6527 67.5075 71.5882C67.5899 71.5236 67.6483 71.4333 67.6734 71.3317L67.7531 71.0176L68.0297 71.1864C68.1192 71.24 68.2241 71.2622 68.3277 71.2495C68.4313 71.2367 68.5277 71.1898 68.6016 71.1161L69.9281 69.7895C70.0018 69.7156 70.0488 69.6192 70.0615 69.5156C70.0743 69.412 70.0521 69.3072 69.9984 69.2176L69.8297 68.9411L70.1438 68.8614C70.2454 68.8362 70.3357 68.7778 70.4002 68.6954C70.4648 68.613 70.4999 68.5114 70.5 68.4067V66.5317C70.4999 66.427 70.4648 66.3253 70.4002 66.2429C70.3357 66.1605 70.2454 66.1021 70.1438 66.077L70.0875 66.0629H73.3125C74.0584 66.0629 74.7738 65.7666 75.3012 65.2392C75.8287 64.7117 76.125 63.9963 76.125 63.2504C76.125 62.5045 75.8287 61.7891 75.3012 61.2617C74.7738 60.7342 74.0584 60.4379 73.3125 60.4379ZM56.2219 61.3754H50.8125C50.3152 61.3754 49.8383 61.1779 49.4867 60.8263C49.135 60.4746 48.9375 59.9977 48.9375 59.5004C48.9375 59.0031 49.135 58.5262 49.4867 58.1746C49.8383 57.823 50.3152 57.6254 50.8125 57.6254H51.75C51.8743 57.6254 51.9935 57.576 52.0815 57.4881C52.1694 57.4002 52.2188 57.281 52.2188 57.1567C52.2192 56.2838 52.4904 55.4326 52.9949 54.7203C53.4994 54.008 54.2125 53.4697 55.0358 53.1797C55.859 52.8897 56.752 52.8622 57.5916 53.1009C58.4312 53.3397 59.176 53.8331 59.7234 54.5129C59.7654 54.5639 59.8175 54.6056 59.8764 54.6354C59.9353 54.6653 59.9997 54.6826 60.0656 54.6864C60.1304 54.6893 60.1952 54.6787 60.2557 54.6553C60.3162 54.6319 60.3712 54.5962 60.4172 54.5504C60.7187 54.2526 61.0955 54.0423 61.5072 53.942C61.919 53.8416 62.3502 53.8549 62.755 53.9806C63.1597 54.1062 63.5228 54.3393 63.8053 54.6552C64.0879 54.971 64.2794 55.3577 64.3594 55.7739C64.2188 55.7598 64.0781 55.7504 63.9375 55.7504C62.6513 55.7519 61.4119 56.2332 60.4617 57.1001C59.5116 57.967 58.9191 59.1572 58.8 60.4379H58.3125C57.9177 60.4387 57.5276 60.5226 57.1674 60.6841C56.8072 60.8457 56.485 61.0812 56.2219 61.3754ZM49.875 68.4067C49.8765 68.3334 49.8941 68.2614 49.9266 68.1957C49.965 68.118 50.0245 68.0527 50.0982 68.0071C50.172 67.9615 50.2571 67.9375 50.3438 67.9379H62.0625V68.4067C62.0626 68.5114 62.0977 68.613 62.1623 68.6954C62.2268 68.7778 62.3171 68.8362 62.4187 68.8614L62.7328 68.9411L62.5641 69.2176C62.5104 69.3072 62.4882 69.412 62.501 69.5156C62.5137 69.6192 62.5607 69.7156 62.6344 69.7895L63.9609 71.1161C64.0348 71.1898 64.1312 71.2367 64.2348 71.2495C64.3384 71.2622 64.4433 71.24 64.5328 71.1864L64.8094 71.0176L64.8891 71.3317C64.9142 71.4333 64.9726 71.5236 65.055 71.5882C65.1374 71.6527 65.2391 71.6878 65.3438 71.6879H65.8125V77.3129H59.25C59.1257 77.3129 59.0065 77.3623 58.9185 77.4502C58.8306 77.5381 58.7812 77.6574 58.7812 77.7817H56.9062C56.9062 77.6574 56.8569 77.5381 56.769 77.4502C56.681 77.3623 56.5618 77.3129 56.4375 77.3129H49.875V68.4067ZM66.4922 78.8692C66.4599 78.9617 66.3998 79.0421 66.3201 79.0991C66.2403 79.1562 66.1449 79.1872 66.0469 79.1879H49.6406C49.5426 79.1872 49.4472 79.1562 49.3674 79.0991C49.2877 79.0421 49.2276 78.9617 49.1953 78.8692L49.0875 78.2504H55.9688C55.9688 78.3748 56.0181 78.494 56.106 78.5819C56.194 78.6698 56.3132 78.7192 56.4375 78.7192H59.25C59.3743 78.7192 59.4935 78.6698 59.5815 78.5819C59.6694 78.494 59.7188 78.3748 59.7188 78.2504H66.6L66.4922 78.8692ZM69.5625 68.0411L68.9906 68.1817C68.9197 68.1999 68.8539 68.2344 68.7986 68.2824C68.7433 68.3304 68.6999 68.3906 68.6719 68.4582C68.6439 68.526 68.6318 68.5993 68.6367 68.6725C68.6416 68.7456 68.6632 68.8167 68.7 68.8801L69.0047 69.3864L68.1984 70.1926L67.6922 69.8879C67.6287 69.8512 67.5577 69.8295 67.4845 69.8246C67.4114 69.8198 67.3381 69.8318 67.2703 69.8598C67.2026 69.8878 67.1424 69.9312 67.0944 69.9866C67.0464 70.0419 67.012 70.1076 66.9937 70.1786L66.8531 70.7504H65.7094L65.5688 70.1786C65.5505 70.1076 65.5161 70.0419 65.4681 69.9866C65.4201 69.9312 65.3599 69.8878 65.2922 69.8598C65.2244 69.8318 65.1511 69.8198 65.078 69.8246C65.0048 69.8295 64.9338 69.8512 64.8703 69.8879L64.3641 70.1926L63.5578 69.3864L63.8625 68.8801C63.8993 68.8167 63.9209 68.7456 63.9258 68.6725C63.9307 68.5993 63.9186 68.526 63.8906 68.4582C63.8626 68.3906 63.8192 68.3304 63.7639 68.2824C63.7086 68.2344 63.6428 68.1999 63.5719 68.1817L63 68.0411V66.8973L63.5719 66.7567C63.6428 66.7385 63.7086 66.704 63.7639 66.656C63.8192 66.608 63.8626 66.5478 63.8906 66.4801C63.9186 66.4124 63.9307 66.3391 63.9258 66.2659C63.9209 66.1927 63.8993 66.1217 63.8625 66.0582L63.5578 65.552L64.3641 64.7457L64.8703 65.0457C64.933 65.0843 65.0039 65.1074 65.0773 65.1131C65.1506 65.1188 65.2243 65.107 65.2922 65.0786C65.3599 65.0505 65.4201 65.0071 65.4681 64.9518C65.5161 64.8965 65.5505 64.8307 65.5688 64.7598L65.7094 64.1879H66.8531L66.9937 64.7598C67.012 64.8307 67.0464 64.8965 67.0944 64.9518C67.1424 65.0071 67.2026 65.0505 67.2703 65.0786C67.3382 65.107 67.4119 65.1188 67.4852 65.1131C67.5586 65.1074 67.6295 65.0843 67.6922 65.0457L68.1984 64.7457L69.0047 65.552L68.7 66.0582C68.6632 66.1217 68.6416 66.1927 68.6367 66.2659C68.6318 66.3391 68.6439 66.4124 68.6719 66.4801C68.6999 66.5478 68.7433 66.608 68.7986 66.656C68.8539 66.704 68.9197 66.7385 68.9906 66.7567L69.5625 66.8973V68.0411ZM73.3125 65.1254H69.9047L68.6016 63.8223C68.5277 63.7486 68.4313 63.7016 68.3277 63.6889C68.2241 63.6762 68.1192 63.6984 68.0297 63.752L67.7531 63.9207L67.6734 63.6067C67.6483 63.5051 67.5899 63.4148 67.5075 63.3502C67.4251 63.2856 67.3234 63.2505 67.2188 63.2504H65.3438C65.2391 63.2505 65.1374 63.2856 65.055 63.3502C64.9726 63.4148 64.9142 63.5051 64.8891 63.6067L64.8094 63.9207L64.5328 63.752C64.4433 63.6984 64.3384 63.6762 64.2348 63.6889C64.1312 63.7016 64.0348 63.7486 63.9609 63.8223L62.6578 65.1254H58.3125C57.8152 65.1254 57.3383 64.9279 56.9867 64.5763C56.635 64.2246 56.4375 63.7477 56.4375 63.2504C56.4375 62.7531 56.635 62.2762 56.9867 61.9246C57.3383 61.573 57.8152 61.3754 58.3125 61.3754H59.25C59.3743 61.3754 59.4935 61.326 59.5815 61.2381C59.6694 61.1502 59.7188 61.031 59.7188 60.9067C59.7192 60.0338 59.9904 59.1826 60.4949 58.4703C60.9994 57.758 61.7125 57.2197 62.5358 56.9297C63.359 56.6397 64.252 56.6122 65.0916 56.8509C65.9312 57.0897 66.676 57.5831 67.2234 58.2629C67.2654 58.3139 67.3175 58.3556 67.3764 58.3854C67.4353 58.4153 67.4997 58.4326 67.5656 58.4364C67.6304 58.4393 67.6952 58.4287 67.7557 58.4053C67.8162 58.3819 67.8712 58.3462 67.9172 58.3004C68.2463 57.976 68.6639 57.7562 69.1176 57.6685C69.5712 57.5807 70.0407 57.6291 70.467 57.8074C70.8933 57.9857 71.2573 58.2861 71.5134 58.6707C71.7695 59.0554 71.9062 59.5071 71.9062 59.9692C71.9041 60.2358 71.8581 60.5002 71.7703 60.752C71.7455 60.8225 71.7376 60.8979 71.7474 60.972C71.7572 61.0461 71.7843 61.1169 71.8266 61.1786C71.8709 61.239 71.9287 61.2883 71.9955 61.3225C72.0622 61.3566 72.136 61.3748 72.2109 61.3754H73.3125C73.8098 61.3754 74.2867 61.573 74.6383 61.9246C74.99 62.2762 75.1875 62.7531 75.1875 63.2504C75.1875 63.7477 74.99 64.2246 74.6383 64.5763C74.2867 64.9279 73.8098 65.1254 73.3125 65.1254Z" fill="#1692BA"/>
<path d="M58.3125 72.1567H57.375V73.0942H58.3125V72.1567Z" fill="#1692BA"/>
<path d="M60.1875 72.1567H59.25V73.0942H60.1875V72.1567Z" fill="#1692BA"/>
<path d="M56.4375 72.1567H55.5V73.0942H56.4375V72.1567Z" fill="#1692BA"/>
</svg>
