<svg width="20" height="20" viewBox="0 0 20 20" fill="none" xmlns="http://www.w3.org/2000/svg">
<path d="M4.64453 4.54297C5.14453 2.19141 7.37891 0.429688 10 0.429688C12.6211 0.429688 14.8555 2.19141 15.3555 4.54297C17.7969 5.07812 19.5703 7.125 19.5703 9.52344C19.5703 10.0703 19.4805 10.6055 19.2969 11.1211C18.8906 12.2813 17.75 13.0586 16.457 13.0586H13.2773C13.2812 13.0898 13.2852 16.2305 13.2852 16.2305H15.3437L14.9414 15.8828C14.6094 15.5938 14.5703 15.0898 14.8594 14.7578C15.1484 14.4258 15.6523 14.3867 15.9844 14.6758L18.0039 16.4219C18.1797 16.5742 18.2812 16.793 18.2812 17.0234C18.2812 17.2539 18.1797 17.4766 18.0039 17.625L15.9844 19.3711C15.4727 19.7656 15.0156 19.4727 14.8594 19.2891C14.5703 18.957 14.6094 18.4531 14.9414 18.1641L15.3398 17.8164H12.4844C12.043 17.8164 11.6875 17.4609 11.6875 17.0195C11.6875 17.0195 11.6914 13.082 11.6953 13.0508H8.30859C8.3125 13.082 8.31641 17.0195 8.31641 17.0195C8.31641 17.4609 7.96094 17.8164 7.51953 17.8164H4.66406L5.0625 18.1641C5.39453 18.4531 5.43359 18.957 5.14453 19.2891C4.98828 19.4727 4.53125 19.7656 4.01953 19.3711L2 17.625C1.82422 17.4727 1.72265 17.2539 1.72265 17.0234C1.72265 16.793 1.82422 16.5703 2 16.4219L4.01953 14.6758C4.35156 14.3867 4.85547 14.4258 5.14453 14.7578C5.43359 15.0898 5.39453 15.5938 5.0625 15.8828L4.66015 16.2305H6.71875C6.71875 16.2305 6.72266 13.0898 6.72656 13.0586H3.54687C2.2539 13.0586 1.11328 12.2813 0.707029 11.1211C0.527342 10.6055 0.433592 10.0703 0.433592 9.52344C0.429686 7.125 2.20312 5.07812 4.64453 4.54297ZM2.20703 10.5938C2.38672 11.1055 2.9375 11.4648 3.54297 11.4648H16.457C17.0625 11.4648 17.6133 11.1055 17.793 10.5938C17.9141 10.25 17.9766 9.89062 17.9766 9.52344C17.9766 7.74219 16.5117 6.23828 14.5664 6.02734C14.1836 5.98438 13.8867 5.67969 13.8555 5.29688C13.7148 3.46094 12.0195 2.02344 10 2.02344C7.98047 2.02344 6.28515 3.46094 6.14453 5.29688C6.11328 5.67969 5.81641 5.98828 5.43359 6.02734C3.48828 6.23828 2.02344 7.74219 2.02344 9.52344C2.02344 9.88672 2.08594 10.2461 2.20703 10.5938Z" fill="#0187CE"/>
</svg>
