<svg width="53" height="53" viewBox="0 0 53 53" fill="none" xmlns="http://www.w3.org/2000/svg">
<path d="M47.1928 43.7082L44.5806 42.962V42.5677C45.9827 41.5867 46.9032 39.9635 46.9032 38.127V36.5787C46.9032 33.5911 44.4722 31.1593 41.4839 31.1593C38.4956 31.1593 36.0645 33.5911 36.0645 36.5787V38.127C36.0645 39.9635 36.985 41.5875 38.3871 42.5677V42.962L35.7749 43.709C34.9425 43.9467 34.2375 44.4544 33.7419 45.1178C33.2463 44.4544 32.5413 43.9467 31.7089 43.7082L29.0968 42.962V42.5677C30.4989 41.5867 31.4194 39.9635 31.4194 38.127V36.5787C31.4194 33.5911 28.9883 31.1593 26 31.1593C23.0117 31.1593 20.5806 33.5911 20.5806 36.5787V38.127C20.5806 39.9635 21.5011 41.5875 22.9032 42.5677V42.962L20.2911 43.709C19.4587 43.9467 18.7537 44.4544 18.2581 45.1178C17.7625 44.4544 17.0575 43.9467 16.225 43.7082L13.6129 42.962V42.5677C15.015 41.5867 15.9355 39.9635 15.9355 38.127V36.5787C15.9355 33.5911 13.5044 31.1593 10.5161 31.1593C7.52785 31.1593 5.09677 33.5911 5.09677 36.5787V38.127C5.09677 39.9635 6.01726 41.5875 7.41935 42.5677V42.962L4.80721 43.709C3.15449 44.1811 2 45.7125 2 47.4314V49.74H50V47.4314C50 45.7125 48.8455 44.1811 47.1928 43.7082ZM39.9355 43.3181C40.4262 43.4651 40.9459 43.5464 41.4839 43.5464C42.0218 43.5464 42.5416 43.4651 43.0323 43.3181V43.5464C43.0323 44.4004 42.3378 45.0948 41.4839 45.0948C40.6299 45.0948 39.9355 44.4004 39.9355 43.5464V43.3181ZM37.6129 38.127V36.5787C37.6129 34.4443 39.3495 32.7077 41.4839 32.7077C43.6182 32.7077 45.3548 34.4443 45.3548 36.5787V38.127C45.3548 40.2614 43.6182 41.998 41.4839 41.998C39.3495 41.998 37.6129 40.2614 37.6129 38.127ZM24.4516 43.3181C24.9423 43.4651 25.4621 43.5464 26 43.5464C26.5379 43.5464 27.0577 43.4651 27.5484 43.3181V43.5464C27.5484 44.4004 26.854 45.0948 26 45.0948C25.146 45.0948 24.4516 44.4004 24.4516 43.5464V43.3181ZM22.129 38.127V36.5787C22.129 34.4443 23.8657 32.7077 26 32.7077C28.1343 32.7077 29.871 34.4443 29.871 36.5787V38.127C29.871 40.2614 28.1343 41.998 26 41.998C23.8657 41.998 22.129 40.2614 22.129 38.127ZM8.96774 43.3181C9.45842 43.4651 9.9782 43.5464 10.5161 43.5464C11.0541 43.5464 11.5738 43.4651 12.0645 43.3181V43.5464C12.0645 44.4004 11.3701 45.0948 10.5161 45.0948C9.66217 45.0948 8.96774 44.4004 8.96774 43.5464V43.3181ZM6.64516 38.127V36.5787C6.64516 34.4443 8.3818 32.7077 10.5161 32.7077C12.6505 32.7077 14.3871 34.4443 14.3871 36.5787V38.127C14.3871 40.2614 12.6505 41.998 10.5161 41.998C8.3818 41.998 6.64516 40.2614 6.64516 38.127ZM17.4839 48.1916H3.54839V47.4314C3.54839 46.4001 4.24131 45.4811 5.23286 45.1976L7.59287 44.5232C8.00378 45.7514 9.15184 46.6432 10.5161 46.6432C11.8804 46.6432 13.0285 45.7507 13.4394 44.5232L15.7994 45.1969C16.791 45.4811 17.4839 46.4001 17.4839 47.4314V48.1916ZM32.9677 48.1916H19.0323V47.4314C19.0323 46.4001 19.7252 45.4811 20.7167 45.1976L23.0767 44.5232C23.4877 45.7514 24.6357 46.6432 26 46.6432C27.3643 46.6432 28.5123 45.7507 28.9233 44.5232L31.2833 45.1969C32.2748 45.4811 32.9677 46.4001 32.9677 47.4314V48.1916ZM48.4516 48.1916H34.5161V47.4314C34.5161 46.4001 35.209 45.4811 36.2006 45.1976L38.5606 44.5232C38.9715 45.7514 40.1196 46.6432 41.4839 46.6432C42.8482 46.6432 43.9962 45.7507 44.4071 44.5232L46.7671 45.1969C47.7587 45.4811 48.4516 46.4001 48.4516 47.4314V48.1916Z" fill="#B05FD6"/>
<path d="M26.0001 29.6109C31.5495 29.6109 36.0646 25.0958 36.0646 19.5464C36.0646 13.997 31.5495 9.48187 26.0001 9.48187C20.4507 9.48187 15.9355 13.997 15.9355 19.5464C15.9355 25.0958 20.4507 29.6109 26.0001 29.6109ZM17.4839 19.5464C17.4839 19.2848 17.5002 19.0277 17.5232 18.7722H18.8395C19.5094 18.7722 20.09 19.2258 20.2526 19.8753L20.3074 20.0945C20.5576 21.0963 21.2914 21.889 22.2716 22.2156C22.746 22.3744 23.1021 22.7585 23.2239 23.2446L23.2787 23.4639C23.6132 24.8032 24.8116 25.7392 26.1936 25.7392H26.4344C26.8903 25.7392 27.3254 25.9565 27.5987 26.3213L28.5975 27.6539C27.7775 27.9177 26.9058 28.0625 26.0001 28.0625C21.3046 28.0625 17.4839 24.2418 17.4839 19.5464V19.5464ZM33.3137 23.8865L32.8332 23.6457C31.9615 23.2091 31.4194 22.3336 31.4194 21.3292C31.4194 20.823 31.568 20.3331 31.8492 19.9108C32.3237 19.1979 33.1194 18.7722 33.9767 18.7722H34.4776C34.4999 19.0277 34.5162 19.2848 34.5162 19.5464C34.5162 21.1326 34.0724 22.6129 33.3137 23.8865V23.8865ZM32.5645 14.127H32.0534C30.4214 14.127 29.0046 15.2883 28.684 16.8885C28.5555 17.5311 27.9866 17.998 27.3311 17.998C26.8053 17.998 26.3323 17.7054 26.0968 17.2355L25.8368 16.7142C25.2777 15.5957 24.1538 14.9012 22.9033 14.9012C22.2429 14.9012 21.6498 14.5342 21.3549 13.9444L20.7935 12.8225C22.2353 11.7039 24.0381 11.0303 26.0001 11.0303C28.6387 11.0303 31.0006 12.2373 32.5645 14.127V14.127ZM19.616 13.9289L19.9698 14.6362C20.5289 15.7552 21.6528 16.4496 22.9033 16.4496C23.5637 16.4496 24.1568 16.8167 24.4517 17.4064L24.7118 17.9277C25.2111 18.9261 26.2144 19.5464 27.3311 19.5464C28.7215 19.5464 29.9292 18.5571 30.2014 17.1928C30.378 16.3131 31.1563 15.6754 32.0526 15.6754H33.5757C33.8271 16.1661 34.0323 16.6832 34.1858 17.2238H33.9756C32.6 17.2238 31.3226 17.9073 30.5602 19.0516C30.1096 19.7282 29.871 20.5164 29.871 21.3586C29.871 22.9233 30.7405 24.3299 32.1403 25.0308L32.3909 25.1563C31.7313 25.907 30.9473 26.5466 30.0631 27.029L28.8368 25.3937C28.2731 24.6406 27.3742 24.1916 26.4337 24.1916H26.1929C25.523 24.1916 24.9424 23.7379 24.7798 23.0881L24.725 22.8692C24.4747 21.8675 23.741 21.0747 22.7608 20.7478C22.2864 20.5894 21.9303 20.2053 21.8085 19.7191L21.7537 19.4999C21.4192 18.1598 20.2208 17.2238 18.8395 17.2238H17.8136C18.1651 15.9873 18.7885 14.868 19.616 13.9289V13.9289Z" fill="#B05FD6"/>
<path d="M25.2256 5.15725V7.93346H26.774V5.15725L27.775 6.15826L28.8698 5.0635L25.9998 2.19354L23.1299 5.0635L24.2246 6.15826L25.2256 5.15725Z" fill="#B05FD6"/>
<path d="M11.0633 21.3215L10.0623 20.3205H14.3869V18.7722H10.0623L11.0633 17.7711L9.96859 16.6764L7.09863 19.5463L9.96859 22.4163L11.0633 21.3215Z" fill="#B05FD6"/>
<path d="M37.6133 18.7722V20.3205H41.9379L40.9369 21.3215L42.0316 22.4163L44.9016 19.5463L42.0316 16.6764L40.9369 17.7711L41.9379 18.7722H37.6133Z" fill="#B05FD6"/>
<path d="M35.0635 11.5776L36.8387 9.80245V11.0303H38.3871V7.1593H34.5161V8.70769H35.744L33.9688 10.4829L35.0635 11.5776Z" fill="#B05FD6"/>
<path d="M15.1617 9.80245L16.9369 11.5776L18.0316 10.4829L16.2564 8.70769H17.4843V7.1593H13.6133V11.0303H15.1617V9.80245Z" fill="#B05FD6"/>
</svg>
