<svg width="54" height="54" viewBox="0 0 54 54" fill="none" xmlns="http://www.w3.org/2000/svg">
<path d="M48.4875 16.1633H47.5177C47.5684 15.8668 47.5925 15.5663 47.5896 15.2654C47.5877 13.599 46.9249 12.0014 45.7465 10.823C44.5682 9.64471 42.9706 8.98189 41.3042 8.97999C39.9769 8.9754 38.6832 9.39718 37.6137 10.1832C36.3985 8.93446 34.8743 8.02982 33.196 7.56128C33.0634 5.99154 32.347 4.52858 31.1883 3.46131C30.0296 2.39404 28.5128 1.80005 26.9375 1.79665C25.6102 1.79207 24.3166 2.21385 23.2471 2.99986C21.9312 1.64341 20.2538 0.692919 18.414 0.261192C16.5742 -0.170536 14.6491 -0.0653781 12.8672 0.564186C11.0853 1.19375 9.52147 2.32129 8.3612 3.813C7.20094 5.30472 6.49298 7.09798 6.32133 8.97999H5.3875C3.95865 8.97999 2.58831 9.5476 1.57796 10.5579C0.56761 11.5683 0 12.9386 0 14.3675C0 15.7963 0.56761 17.1667 1.57796 18.177C2.58831 19.1874 3.95865 19.755 5.3875 19.755H14.6809C14.3904 20.5671 14.2995 21.4372 14.4162 22.2918C14.5328 23.1464 14.8535 23.9604 15.351 24.6649C15.8486 25.3694 16.5085 25.9438 17.2749 26.3395C18.0413 26.7352 18.8917 26.9406 19.7542 26.9383H27.7277L27.6199 26.9653C27.4252 27.0134 27.2523 27.1253 27.1286 27.2831C27.0049 27.441 26.9377 27.6357 26.9375 27.8362V28.7342H4.48958C3.99273 28.7332 3.50539 28.8704 3.08202 29.1304C2.65865 29.3905 2.31593 29.7631 2.09215 30.2067C1.90052 30.5855 1.79911 31.0034 1.79583 31.4279V48.4883H1.00567C0.875243 48.489 0.746539 48.5181 0.628508 48.5736C0.510476 48.6291 0.405951 48.7097 0.322203 48.8097C0.238454 48.9096 0.177493 49.0267 0.143559 49.1526C0.109626 49.2785 0.103534 49.4104 0.125708 49.5389L0.53875 51.8376C0.539541 51.8712 0.545601 51.9045 0.556708 51.9363C0.722602 52.4943 1.06358 52.9841 1.52926 53.3333C1.99494 53.6826 2.56062 53.8728 3.14271 53.8758H34.5698C35.1519 53.8728 35.7176 53.6826 36.1832 53.3333C36.6489 52.9841 36.9899 52.4943 37.1558 51.9363C37.1669 51.9045 37.173 51.8712 37.1738 51.8376L37.5868 49.5389C37.609 49.4104 37.6029 49.2785 37.5689 49.1526C37.535 49.0267 37.474 48.9096 37.3903 48.8097C37.3065 48.7097 37.202 48.6291 37.084 48.5736C36.966 48.5181 36.8373 48.489 36.7068 48.4883H35.9167V37.7133H36.8146C37.0151 37.7132 37.2098 37.6459 37.3677 37.5222C37.5255 37.3985 37.6374 37.2256 37.6856 37.0309L37.8382 36.4293L38.368 36.7526C38.5395 36.8553 38.7404 36.8978 38.9388 36.8734C39.1373 36.849 39.3219 36.7591 39.4634 36.6179L42.0045 34.0768C42.1457 33.9352 42.2357 33.7506 42.2601 33.5522C42.2845 33.3537 42.2419 33.1528 42.1392 32.9813L41.816 32.4515L42.4176 32.2989C42.6123 32.2508 42.7852 32.1389 42.9089 31.981C43.0326 31.8231 43.0998 31.6284 43.1 31.4279V27.8362C43.0998 27.6357 43.0326 27.441 42.9089 27.2831C42.7852 27.1253 42.6123 27.0134 42.4176 26.9653L42.3098 26.9383H48.4875C49.9164 26.9383 51.2867 26.3707 52.297 25.3604C53.3074 24.35 53.875 22.9797 53.875 21.5508C53.875 20.122 53.3074 18.7516 52.297 17.7413C51.2867 16.7309 49.9164 16.1633 48.4875 16.1633V16.1633ZM15.7495 17.9592H5.3875C4.43493 17.9592 3.52138 17.5807 2.84781 16.9072C2.17424 16.2336 1.79583 15.3201 1.79583 14.3675C1.79583 13.4149 2.17424 12.5014 2.84781 11.8278C3.52138 11.1542 4.43493 10.7758 5.3875 10.7758H7.18333C7.42148 10.7758 7.64986 10.6812 7.81826 10.5128C7.98665 10.3444 8.08125 10.116 8.08125 9.8779C8.08208 8.20587 8.60152 6.57525 9.56799 5.21083C10.5344 3.8464 11.9003 2.81534 13.4774 2.25978C15.0544 1.70422 16.765 1.65151 18.3732 2.10892C19.9815 2.56632 21.4083 3.51132 22.4569 4.81365C22.5373 4.91125 22.6371 4.99114 22.7499 5.04832C22.8627 5.10549 22.9861 5.13871 23.1124 5.14588C23.2365 5.15145 23.3605 5.13118 23.4764 5.08636C23.5923 5.04153 23.6977 4.97313 23.7858 4.88549C24.3634 4.31506 25.0851 3.91222 25.8738 3.71996C26.6625 3.5277 27.4887 3.55324 28.264 3.79386C29.0393 4.03447 29.7347 4.48114 30.276 5.08615C30.8173 5.69117 31.1841 6.43183 31.3373 7.22905C31.0679 7.20211 30.7985 7.18415 30.5292 7.18415C28.0654 7.18699 25.6912 8.10889 23.8712 9.76953C22.0511 11.4302 20.916 13.7101 20.688 16.1633H19.7542C18.998 16.1649 18.2506 16.3255 17.5607 16.6349C16.8707 16.9444 16.2536 17.3955 15.7495 17.9592V17.9592ZM3.59167 31.4279C3.59451 31.2876 3.62824 31.1496 3.69044 31.0238C3.76406 30.875 3.878 30.7498 4.01928 30.6625C4.16056 30.5751 4.32351 30.5293 4.48958 30.53H26.9375V31.4279C26.9377 31.6284 27.0049 31.8231 27.1286 31.981C27.2523 32.1389 27.4252 32.2508 27.6199 32.2989L28.2215 32.4515L27.8983 32.9813C27.7956 33.1528 27.753 33.3537 27.7774 33.5522C27.8018 33.7506 27.8918 33.9352 28.033 34.0768L30.5741 36.6179C30.7156 36.7591 30.9002 36.849 31.0987 36.8734C31.2971 36.8978 31.498 36.8553 31.6695 36.7526L32.1993 36.4293L32.3519 37.0309C32.4001 37.2256 32.512 37.3985 32.6698 37.5222C32.8277 37.6459 33.0224 37.7132 33.2229 37.7133H34.1208V48.4883H21.55C21.3119 48.4883 21.0835 48.5829 20.9151 48.7513C20.7467 48.9197 20.6521 49.1481 20.6521 49.3862H17.0604C17.0604 49.1481 16.9658 48.9197 16.7974 48.7513C16.629 48.5829 16.4006 48.4883 16.1625 48.4883H3.59167V31.4279ZM35.4228 51.4694C35.361 51.6467 35.2458 51.8006 35.0931 51.9099C34.9404 52.0192 34.7576 52.0786 34.5698 52.08H3.14271C2.95491 52.0786 2.77214 52.0192 2.61943 51.9099C2.46672 51.8006 2.35154 51.6467 2.28969 51.4694L2.08317 50.2842H15.2646C15.2646 50.5223 15.3592 50.7507 15.5276 50.9191C15.696 51.0875 15.9244 51.1821 16.1625 51.1821H21.55C21.7881 51.1821 22.0165 51.0875 22.1849 50.9191C22.3533 50.7507 22.4479 50.5223 22.4479 50.2842H35.6293L35.4228 51.4694ZM41.3042 30.7275L40.2087 30.9969C40.0728 31.0318 39.9469 31.0978 39.8409 31.1898C39.7349 31.2817 39.6518 31.3971 39.5981 31.5267C39.5445 31.6565 39.5214 31.7969 39.5308 31.937C39.5401 32.0772 39.5816 32.2133 39.652 32.3348L40.2356 33.3046L38.6912 34.849L37.7215 34.2653C37.5999 34.1949 37.4638 34.1534 37.3237 34.1441C37.1836 34.1348 37.0432 34.1578 36.9134 34.2114C36.7837 34.2651 36.6684 34.3483 36.5764 34.4542C36.4845 34.5602 36.4185 34.6861 36.3836 34.822L36.1142 35.9175H33.9233L33.6539 34.822C33.619 34.6861 33.553 34.5602 33.4611 34.4542C33.3691 34.3483 33.2538 34.2651 33.1241 34.2114C32.9943 34.1578 32.8539 34.1348 32.7138 34.1441C32.5737 34.1534 32.4376 34.1949 32.316 34.2653L31.3463 34.849L29.8019 33.3046L30.3855 32.3348C30.4559 32.2133 30.4974 32.0772 30.5067 31.937C30.5161 31.7969 30.493 31.6565 30.4394 31.5267C30.3857 31.3971 30.3026 31.2817 30.1966 31.1898C30.0906 31.0978 29.9647 31.0318 29.8288 30.9969L28.7333 30.7275V28.5366L29.8288 28.2672C29.9647 28.2324 30.0906 28.1663 30.1966 28.0744C30.3026 27.9824 30.3857 27.8671 30.4394 27.7375C30.493 27.6077 30.5161 27.4673 30.5067 27.3271C30.4974 27.187 30.4559 27.0509 30.3855 26.9293L29.8019 25.9596L31.3463 24.4152L32.316 24.9898C32.4361 25.0637 32.572 25.1079 32.7125 25.1188C32.853 25.1298 32.9941 25.1071 33.1241 25.0527C33.2538 24.999 33.3691 24.9159 33.4611 24.8099C33.553 24.7039 33.619 24.578 33.6539 24.4421L33.9233 23.3467H36.1142L36.3836 24.4421C36.4185 24.578 36.4845 24.7039 36.5764 24.8099C36.6684 24.9159 36.7837 24.999 36.9134 25.0527C37.0434 25.1071 37.1845 25.1298 37.325 25.1188C37.4655 25.1079 37.6014 25.0637 37.7215 24.9898L38.6912 24.4152L40.2356 25.9596L39.652 26.9293C39.5816 27.0509 39.5401 27.187 39.5308 27.3271C39.5214 27.4673 39.5445 27.6077 39.5981 27.7375C39.6518 27.8671 39.7349 27.9824 39.8409 28.0744C39.9469 28.1663 40.0728 28.2324 40.2087 28.2672L41.3042 28.5366V30.7275ZM48.4875 25.1425H41.9596L39.4634 22.6463C39.3219 22.5051 39.1373 22.4152 38.9388 22.3908C38.7404 22.3664 38.5395 22.4089 38.368 22.5116L37.8382 22.8348L37.6856 22.2332C37.6374 22.0386 37.5255 21.8656 37.3677 21.7419C37.2098 21.6183 37.0151 21.551 36.8146 21.5508H33.2229C33.0224 21.551 32.8277 21.6183 32.6698 21.7419C32.512 21.8656 32.4001 22.0386 32.3519 22.2332L32.1993 22.8348L31.6695 22.5116C31.498 22.4089 31.2971 22.3664 31.0987 22.3908C30.9002 22.4152 30.7156 22.5051 30.5741 22.6463L28.0779 25.1425H19.7542C18.8016 25.1425 17.888 24.7641 17.2145 24.0905C16.5409 23.4169 16.1625 22.5034 16.1625 21.5508C16.1625 20.5983 16.5409 19.6847 17.2145 19.0111C17.888 18.3376 18.8016 17.9592 19.7542 17.9592H21.55C21.7881 17.9592 22.0165 17.8646 22.1849 17.6962C22.3533 17.5278 22.4479 17.2994 22.4479 17.0612C22.4487 15.3892 22.9682 13.7586 23.9347 12.3942C24.9011 11.0297 26.267 9.99868 27.844 9.44312C29.4211 8.88756 31.1316 8.83485 32.7399 9.29225C34.3481 9.74966 35.7749 10.6947 36.8236 11.997C36.904 12.0946 37.0038 12.1745 37.1166 12.2317C37.2294 12.2888 37.3528 12.322 37.479 12.3292C37.6032 12.3348 37.7272 12.3145 37.8431 12.2697C37.959 12.2249 38.0644 12.1565 38.1525 12.0688C38.7829 11.4475 39.5828 11.0263 40.4519 10.8583C41.3209 10.6902 42.2202 10.7828 43.0368 11.1244C43.8534 11.466 44.5507 12.0414 45.0413 12.7781C45.5318 13.5149 45.7936 14.3803 45.7938 15.2654C45.7895 15.7761 45.7016 16.2827 45.5334 16.7649C45.4858 16.9 45.4708 17.0444 45.4895 17.1864C45.5082 17.3283 45.5602 17.4639 45.6411 17.582C45.726 17.6978 45.8368 17.7922 45.9646 17.8577C46.0925 17.9232 46.2338 17.9579 46.3774 17.9592H48.4875C49.4401 17.9592 50.3536 18.3376 51.0272 19.0111C51.7008 19.6847 52.0792 20.5983 52.0792 21.5508C52.0792 22.5034 51.7008 23.4169 51.0272 24.0905C50.3536 24.7641 49.4401 25.1425 48.4875 25.1425V25.1425Z" fill="#1692BA"/>
<path d="M19.7538 38.6113H17.958V40.4072H19.7538V38.6113Z" fill="#1692BA"/>
<path d="M23.3456 38.6113H21.5498V40.4072H23.3456V38.6113Z" fill="#1692BA"/>
<path d="M16.162 38.6113H14.3662V40.4072H16.162V38.6113Z" fill="#1692BA"/>
</svg>
