<svg width="53" height="53" viewBox="0 0 53 53" fill="none" xmlns="http://www.w3.org/2000/svg">
<path d="M21.5173 37.4408C21.3209 37.4408 21.123 37.3733 20.9616 37.2358L15.4063 32.5054C15.2147 32.3421 15.1045 32.1035 15.1045 31.8515C15.1045 31.6 15.2152 31.3614 15.4063 31.1981L20.9616 26.4677C21.3223 26.1602 21.8642 26.2038 22.1717 26.5645C22.4788 26.9257 22.4357 27.4676 22.0745 27.7746L17.2871 31.8515L22.0745 35.9284C22.4357 36.236 22.4788 36.7778 22.1717 37.1385C22.0016 37.3383 21.7602 37.4408 21.5173 37.4408Z" fill="#468EFB"/>
<path d="M32.4839 37.4408C32.241 37.4408 31.9996 37.3383 31.83 37.1385C31.5224 36.7778 31.566 36.236 31.9268 35.9284L36.7141 31.8515L31.9268 27.7746C31.566 27.4676 31.5224 26.9257 31.83 26.5645C32.1371 26.2038 32.6794 26.1602 33.0396 26.4677L38.5949 31.1981C38.7865 31.3614 38.8967 31.6 38.8967 31.8515C38.8967 32.1035 38.7865 32.3421 38.5949 32.5054L33.0396 37.2358C32.8782 37.3733 32.6803 37.4408 32.4839 37.4408V37.4408Z" fill="#468EFB"/>
<path d="M25.0327 40.9888C24.9738 40.9888 24.9144 40.9825 24.8545 40.9701C24.3907 40.8724 24.0937 40.4168 24.1915 39.953L27.6537 23.5148C27.7514 23.051 28.2065 22.754 28.6707 22.8517C29.1345 22.9495 29.4315 23.4046 29.3338 23.8688L25.8715 40.3071C25.7863 40.7114 25.4298 40.9888 25.0327 40.9888V40.9888Z" fill="#468EFB"/>
<path d="M47.2358 49.9445H6.76415C3.58601 49.9445 1 47.359 1 44.1804V9.83019C1 6.65205 3.58601 4.06604 6.76415 4.06604H47.2358C50.414 4.06604 53 6.65205 53 9.83019V44.1804C53 47.359 50.414 49.9445 47.2358 49.9445ZM6.76415 5.78302C4.53265 5.78302 2.71698 7.59869 2.71698 9.83019V44.1804C2.71698 46.4119 4.53265 48.2275 6.76415 48.2275H47.2358C49.4674 48.2275 51.283 46.4119 51.283 44.1804V9.83019C51.283 7.59869 49.4674 5.78302 47.2358 5.78302H6.76415Z" fill="#468EFB"/>
<path d="M52.1415 17.8129H1.85849C1.38421 17.8129 1 17.4287 1 16.9544C1 16.4806 1.38421 16.0959 1.85849 16.0959H52.1415C52.6158 16.0959 53 16.4806 53 16.9544C53 17.4287 52.6158 17.8129 52.1415 17.8129Z" fill="#468EFB"/>
<path d="M15.668 13.7049C14.1704 13.7049 12.9512 12.4857 12.9512 10.9881C12.9512 9.49005 14.1704 8.2713 15.668 8.2713C17.166 8.2713 18.3848 9.49005 18.3848 10.9881C18.3848 12.4857 17.166 13.7049 15.668 13.7049ZM15.668 9.98828C15.117 9.98828 14.6682 10.4367 14.6682 10.9881C14.6682 11.5395 15.117 11.9879 15.668 11.9879C16.2194 11.9879 16.6678 11.5395 16.6678 10.9881C16.6678 10.4367 16.2194 9.98828 15.668 9.98828Z" fill="#468EFB"/>
<path d="M7.32031 13.6785C5.82227 13.6785 4.60352 12.4598 4.60352 10.9617C4.60352 9.46368 5.82227 8.24493 7.32031 8.24493C8.81836 8.24493 10.0371 9.46368 10.0371 10.9617C10.0371 12.4598 8.81836 13.6785 7.32031 13.6785ZM7.32031 9.96192C6.76938 9.96192 6.3205 10.4108 6.3205 10.9617C6.3205 11.5131 6.76938 11.9615 7.32031 11.9615C7.87172 11.9615 8.32013 11.5131 8.32013 10.9617C8.32013 10.4108 7.87172 9.96192 7.32031 9.96192Z" fill="#468EFB"/>
<path d="M24.0161 13.7308C22.5186 13.7308 21.2998 12.512 21.2998 11.014C21.2998 9.51642 22.5186 8.29767 24.0161 8.29767C25.5142 8.29767 26.7329 9.51642 26.7329 11.014C26.7329 12.512 25.5142 13.7308 24.0161 13.7308ZM24.0161 10.0142C23.4652 10.0142 23.0168 10.4626 23.0168 11.014C23.0168 11.5654 23.4652 12.0138 24.0161 12.0138C24.5675 12.0138 25.0159 11.5654 25.0159 11.014C25.0159 10.4626 24.5675 10.0142 24.0161 10.0142Z" fill="#468EFB"/>
</svg>
