<svg width="53" height="53" viewBox="0 0 53 53" fill="none" xmlns="http://www.w3.org/2000/svg">
<path d="M52.9496 33.1155C52.9571 33.0293 52.9513 32.9424 52.9323 32.8579L45.1119 4.16654C45.1011 4.12562 45.0866 4.0857 45.0688 4.04721C44.5343 1.67837 42.4285 -0.00300204 40 -5.67249e-05H14C11.5418 -0.00320516 9.41872 1.71879 8.91426 4.1247L8.90156 4.16654L1.27838 32.1347C1.20495 32.3478 1.14564 32.5654 1.10085 32.7862L1.08125 32.8579C1.07698 32.8911 1.07475 32.9244 1.07455 32.9577C1.02681 33.236 1.00193 33.5176 1 33.7999V35.5333C1.00315 38.4039 3.32944 40.7302 6.2 40.7333H23.5334V43.3333H19.2C18.1018 43.3367 17.1246 44.0308 16.7597 45.0667H7.06663C5.63074 45.0667 4.46663 46.2308 4.46663 47.6667C4.46663 49.1026 5.63064 50.2667 7.06663 50.2667H16.7598C17.1246 51.3025 18.1018 51.9966 19.2 52H34.8C35.8982 51.9967 36.8754 51.3025 37.2403 50.2667H46.9334C48.3693 50.2667 49.5334 49.1027 49.5334 47.6667C49.5334 46.2307 48.3693 45.0667 46.9334 45.0667H37.2403C36.8755 44.0308 35.8983 43.3368 34.8 43.3333H30.4666V40.7333H47.8C50.6706 40.7302 52.9969 38.4039 53 35.5333V33.7999C52.9983 33.5709 52.9815 33.3423 52.9496 33.1155ZM16.6 48.5333H7.06663C6.58817 48.5328 6.20041 48.1451 6.2 47.6667C6.20051 47.1882 6.58817 46.8004 7.06663 46.8H16.6V48.5333ZM37.4 46.7999H46.9334C47.4118 46.8004 47.7996 47.1881 47.8 47.6666C47.7995 48.145 47.4117 48.5328 46.9334 48.5332H37.4V46.7999ZM10.5469 4.72138C10.5692 4.66664 10.5859 4.60976 10.5968 4.55167C10.9037 2.91479 12.3346 1.72965 14 1.73331H40C41.6654 1.72965 43.0964 2.91479 43.4032 4.55167C43.4184 4.63251 43.4455 4.71061 43.4836 4.78354L50.1266 29.1561C49.4053 28.7911 48.6084 28.6006 47.8 28.5999H6.2C5.39745 28.6007 4.60618 28.7884 3.88905 29.1486L10.5469 4.72138ZM34.8 45.0666C35.2785 45.0671 35.6662 45.4548 35.6666 45.9332V49.3999C35.6661 49.8784 35.2784 50.2662 34.8 50.2666H19.2C18.7215 50.2661 18.3338 49.8784 18.3334 49.3999V45.9333C18.3339 45.4548 18.7215 45.0671 19.2 45.0667H34.8V45.0666ZM25.2666 43.3333V40.7333H28.7333V43.3333H25.2666ZM51.2666 35.5333C51.2646 37.4471 49.7137 38.9979 47.8 38.9999H44.3334V34.6666C44.3334 34.1879 43.9454 33.7999 43.4667 33.7999C42.9881 33.7999 42.6001 34.188 42.6001 34.6666V38.9999H40.8667V34.6666C40.8667 34.1879 40.4788 33.7999 40.0001 33.7999C39.5214 33.7999 39.1335 34.188 39.1335 34.6666V38.9999H37.4V34.6666C37.4 34.1879 37.012 33.7999 36.5334 33.7999C36.0547 33.7999 35.6667 34.188 35.6667 34.6666V38.9999H33.9334V34.6666C33.9334 34.1879 33.5454 33.7999 33.0667 33.7999C32.5881 33.7999 32.2001 34.188 32.2001 34.6666V38.9999H6.2001C4.28636 38.9979 2.7355 37.4471 2.73347 35.5333V33.7999C2.73469 33.5804 2.75683 33.3614 2.79959 33.146L2.86489 32.9064C3.26687 31.3932 4.63441 30.3382 6.2001 30.3333H47.8001C49.7138 30.3353 51.2647 31.8862 51.2667 33.7999V35.5333H51.2666Z" fill="#B05FD6"/>
<path d="M8.8002 32.0665C7.36431 32.0665 6.2002 33.2306 6.2002 34.6665C6.2002 36.1024 7.3642 37.2665 8.8002 37.2665C10.2362 37.2665 11.4002 36.1024 11.4002 34.6665C11.3987 33.2312 10.2355 32.0682 8.8002 32.0665ZM8.8002 35.5333C8.32153 35.5333 7.93356 35.1453 7.93356 34.6666C7.93356 34.188 8.32153 33.8 8.8002 33.8C9.27886 33.8 9.66683 34.1881 9.66683 34.6666C9.66643 35.145 9.27866 35.5328 8.8002 35.5333Z" fill="#B05FD6"/>
<path d="M27 25.1334C34.1686 25.1334 40 20.6626 40 15.1668C40 9.67106 34.1686 5.20007 27 5.20007C19.8314 5.20007 14 9.67096 14 15.1667C14 20.6625 19.8314 25.1334 27 25.1334ZM27 6.93344C33.2123 6.93344 38.2666 10.627 38.2666 15.1668C38.2666 19.7067 33.2123 23.4002 27 23.4002C20.7877 23.4002 15.7334 19.7067 15.7334 15.1668C15.7334 10.6269 20.7877 6.93344 27 6.93344Z" fill="#B05FD6"/>
<path d="M21.9581 18.5152H32.0433C33.578 18.4584 34.7946 17.2008 34.8007 15.6651C34.8068 14.1294 33.6003 12.8622 32.0661 12.793C31.5896 11.3723 30.2637 10.4111 28.7653 10.3999C28.311 10.4006 27.8614 10.4925 27.4433 10.6702C26.7918 9.83327 25.7922 9.34161 24.7316 9.33643C22.7899 9.37736 21.233 10.9554 21.2183 12.8975C20.009 13.2674 19.1877 14.3895 19.2006 15.6541C19.1745 17.2047 20.4077 18.4842 21.9581 18.5152ZM22.0224 14.5293H22.0283C22.313 14.5758 22.6019 14.4758 22.7968 14.2631C22.9928 14.0522 23.0714 13.7578 23.0068 13.4773C22.9697 13.3192 22.9509 13.1573 22.9509 12.9949C22.9139 11.9727 23.7096 11.1125 24.7316 11.0699C25.4465 11.0851 26.0827 11.5271 26.3464 12.1917C26.4528 12.4438 26.6719 12.6309 26.9376 12.6963C27.2033 12.7617 27.4842 12.6978 27.6955 12.524C27.9952 12.2722 28.3739 12.1339 28.7652 12.1334C29.7147 12.1629 30.4839 12.9136 30.5367 13.862C30.5621 14.1341 30.7142 14.3783 30.9472 14.521C31.1802 14.6637 31.4668 14.6884 31.7207 14.5874C31.8233 14.5467 31.9328 14.526 32.0432 14.5265C32.624 14.5826 33.0672 15.0707 33.0672 15.6542C33.0672 16.2378 32.624 16.7259 32.0432 16.782H21.958C21.3653 16.7266 20.9174 16.2205 20.9345 15.6256C20.9515 15.0306 21.4276 14.5508 22.0224 14.5293Z" fill="#B05FD6"/>
</svg>
