<svg width="53" height="53" viewBox="0 0 53 53" fill="none" xmlns="http://www.w3.org/2000/svg">
<g clip-path="url(#clip0)">
<path d="M49.3335 22.6215L45.2312 22.2412C44.793 20.5634 44.1244 18.9585 43.2386 17.4573L45.8709 14.2871C46.1131 13.9955 46.0932 13.5673 45.8252 13.2991L40.6835 8.15743C40.4154 7.88952 39.9873 7.86966 39.6955 8.1117L36.5202 10.7482C35.0181 9.86463 33.4122 9.19854 31.7334 8.76271L31.3537 4.66701C31.3187 4.28958 31.002 4.00092 30.6228 4.00092H23.3515C22.9724 4.00092 22.6557 4.28967 22.6207 4.66719L22.2404 8.76953C20.5624 9.20779 18.9575 9.8764 17.4564 10.7622L14.2862 8.12985C13.9945 7.88754 13.5663 7.90758 13.2982 8.17558L8.15678 13.3172C7.88869 13.5853 7.86893 14.0135 8.11105 14.3052L10.7476 17.4806C9.86399 18.9828 9.19789 20.5886 8.76206 22.2673L4.66619 22.6471C4.28876 22.682 4 22.9987 4 23.3779V30.6237C4 31.0028 4.28876 31.3195 4.66628 31.3545L8.76215 31.7343C9.19798 33.413 9.86408 35.019 10.7477 36.5211L8.11114 39.6964C7.86893 39.988 7.88878 40.4162 8.15687 40.6844L13.2983 45.8261C13.5664 46.0941 13.9946 46.1139 14.2864 45.8718L17.4566 43.2395C18.9577 44.1254 20.5625 44.7939 22.2405 45.2321L22.6209 49.3345C22.6558 49.712 22.9726 50.0007 23.3517 50.0007H30.623C31.0022 50.0007 31.3189 49.712 31.3539 49.3345L31.7337 45.2386C33.4125 44.8028 35.0183 44.1367 36.5204 43.253L39.6958 45.8896C39.9875 46.1319 40.4156 46.1119 40.6838 45.8439L45.8254 40.7022C46.0935 40.434 46.1133 40.0059 45.8711 39.7142L43.2388 36.5442C44.1248 35.0431 44.7933 33.4382 45.2315 31.7602L49.3338 31.3799C49.7113 31.3449 50.0001 31.0281 50.0001 30.649V23.3522C49.9998 22.9732 49.7111 22.6564 49.3335 22.6215ZM48.5318 29.98L44.5756 30.3468C44.2604 30.3761 43.9994 30.604 43.9282 30.9125C43.4944 32.7909 42.7506 34.5765 41.7176 36.2194C41.5487 36.488 41.5716 36.8349 41.7744 37.079L44.314 40.1374L40.1188 44.3326L37.0555 41.7892C36.8116 41.5867 36.4655 41.5636 36.1969 41.732C34.5529 42.7622 32.7663 43.5033 30.8869 43.9344C30.5779 44.0054 30.3494 44.2666 30.3202 44.5821L29.954 48.5326H24.0207L23.654 44.5764C23.6247 44.2612 23.3967 44.0002 23.0882 43.929C21.2099 43.4952 19.4242 42.7515 17.7813 41.7184C17.5125 41.5496 17.1657 41.5726 16.9217 41.7751L13.8632 44.3148L9.66804 40.1196L12.2114 37.0564C12.4138 36.8125 12.437 36.4663 12.2686 36.1977C11.2384 34.5537 10.4974 32.7672 10.0663 30.8877C9.99534 30.5787 9.73417 30.3502 9.41864 30.321L5.46804 29.9548V24.0472L9.41855 23.681C9.73417 23.6517 9.99543 23.4233 10.0662 23.1143C10.4973 21.2349 11.2383 19.4483 12.2686 17.8043C12.4369 17.5357 12.4137 17.1895 12.2113 16.9456L9.66795 13.8824L13.8631 9.68719L16.9217 12.2269C17.1659 12.4297 17.5128 12.4525 17.7813 12.2836C19.4241 11.2506 21.2096 10.5069 23.0881 10.073C23.3967 10.0017 23.6246 9.74074 23.6539 9.42557L24.0207 5.46941H29.9537L30.3199 9.41982C30.3492 9.73544 30.5777 9.9967 30.8866 10.0675C32.7661 10.4987 34.5526 11.2397 36.1966 12.2699C36.4652 12.4382 36.8114 12.4149 37.0553 12.2127L40.1185 9.66932L44.3137 13.8646L41.774 16.9231C41.5713 17.1672 41.5484 17.5141 41.7173 17.7827C42.7504 19.4258 43.4941 21.2111 43.9279 23.0895C43.9992 23.398 44.2602 23.6259 44.5753 23.6552L48.5315 24.0221V29.98H48.5318Z" fill="#E69722"/>
<path d="M26.9999 11.0958C18.2303 11.0958 11.0957 18.2304 11.0957 27C11.0957 30.6751 12.384 34.2622 14.7233 37.1006C14.9812 37.4135 15.4438 37.4577 15.7568 37.2003C16.0696 36.9424 16.1141 36.4798 15.8564 36.1668C13.7331 33.5907 12.5638 30.3351 12.5638 26.9999C12.5638 19.0398 19.0398 12.5638 27 12.5638C34.9601 12.5638 41.4361 19.0398 41.4361 26.9999C41.4361 34.96 34.96 41.4361 26.9999 41.4361C23.6647 41.4361 20.4091 40.2668 17.833 38.1435C17.5201 37.8858 17.0575 37.9303 16.7995 38.2432C16.5417 38.5561 16.5862 39.0187 16.8991 39.2766C19.7377 41.616 23.3247 42.9043 26.9998 42.9043C35.7694 42.9043 42.904 35.7697 42.904 27.0001C42.904 18.2305 35.7695 11.0958 26.9999 11.0958Z" fill="#E69722"/>
<path d="M26.9997 16.9682C21.468 16.9682 16.9678 21.4685 16.9678 27.0001C16.9678 32.5318 21.468 37.032 26.9997 37.032C32.5313 37.032 37.0316 32.5318 37.0316 27.0001C37.0316 21.4685 32.5313 16.9682 26.9997 16.9682ZM26.9997 35.5639C22.2775 35.5639 18.4359 31.7222 18.4359 27.0001C18.4359 22.278 22.2776 18.4363 26.9997 18.4363C31.7218 18.4363 35.5635 22.278 35.5635 27.0001C35.5635 31.7222 31.7219 35.5639 26.9997 35.5639Z" fill="#E69722"/>
<path d="M30.3639 23.3299C29.9584 23.3299 29.6299 23.6585 29.6299 24.0639V25.532C29.6299 25.9374 29.9585 26.266 30.3639 26.266C30.7694 26.266 31.0979 25.9374 31.0979 25.532V24.0639C31.098 23.6585 30.7695 23.3299 30.3639 23.3299Z" fill="#E69722"/>
<path d="M23.6364 23.3299C23.2309 23.3299 22.9023 23.6585 22.9023 24.0639V25.532C22.9023 25.9374 23.2309 26.266 23.6364 26.266C24.0418 26.266 24.3704 25.9374 24.3704 25.532V24.0639C24.3704 23.6585 24.0418 23.3299 23.6364 23.3299Z" fill="#E69722"/>
<path d="M30.6575 27.7956C30.2862 27.633 29.8533 27.8028 29.6909 28.1742C29.2231 29.2446 28.1666 29.9363 26.9996 29.9363C25.8324 29.9363 24.776 29.2447 24.3082 28.1742C24.1459 27.8027 23.713 27.633 23.3416 27.7956C22.9702 27.9579 22.8006 28.3906 22.963 28.7622C23.6646 30.3672 25.249 31.4043 26.9996 31.4043C28.7501 31.4043 30.3345 30.3672 31.0361 28.7622C31.1985 28.3906 31.0289 27.9579 30.6575 27.7956Z" fill="#E69722"/>
</g>
<defs>
<clipPath id="clip0">
<rect width="46" height="46" fill="white" transform="translate(4 4)"/>
</clipPath>
</defs>
</svg>
