<svg width="53" height="53" viewBox="0 0 53 53" fill="none" xmlns="http://www.w3.org/2000/svg">
<path d="M7.90551 8.85766C7.90551 9.40126 7.46486 9.84191 6.92126 9.84191C6.37766 9.84191 5.93701 9.40126 5.93701 8.85766C5.93701 8.31406 6.37766 7.87341 6.92126 7.87341C7.46486 7.87341 7.90551 8.31406 7.90551 8.85766ZM12.3346 8.85766C12.3346 9.40126 11.894 9.84191 11.3504 9.84191C10.8068 9.84191 10.3661 9.40126 10.3661 8.85766C10.3661 8.31406 10.8068 7.87341 11.3504 7.87341C11.894 7.87341 12.3346 8.31406 12.3346 8.85766ZM16.7638 8.85766C16.7638 9.40126 16.3231 9.84191 15.7795 9.84191C15.2359 9.84191 14.7953 9.40126 14.7953 8.85766C14.7953 8.31406 15.2359 7.87341 15.7795 7.87341C16.3231 7.87341 16.7638 8.31406 16.7638 8.85766ZM23.1614 38.9758C22.618 38.9758 22.1772 39.4177 22.1772 39.96C22.1772 40.5023 22.618 40.9443 23.1614 40.9443C23.7037 40.9443 24.1457 40.5023 24.1457 39.96C24.1457 39.4177 23.7037 38.9758 23.1614 38.9758ZM21.685 16.7317V31.2002C21.685 31.7437 21.2443 32.1844 20.7008 32.1844H6.92126C6.37776 32.1844 5.93701 31.7437 5.93701 31.2002V16.7317C5.93701 16.1882 6.37776 15.7474 6.92126 15.7474H20.7008C21.2443 15.7474 21.685 16.1882 21.685 16.7317ZM19.7165 17.7159H7.90551V30.2159H19.7165V17.7159ZM24.6378 18.4049H34.7756C35.3191 18.4049 35.7598 17.9642 35.7598 17.4207C35.7598 16.8771 35.3191 16.4364 34.7756 16.4364H24.6378C24.0943 16.4364 23.6535 16.8771 23.6535 17.4207C23.6535 17.9642 24.0943 18.4049 24.6378 18.4049ZM24.6378 22.3419H32.8071C33.3506 22.3419 33.7913 21.9012 33.7913 21.3577C33.7913 20.8142 33.3506 20.3734 32.8071 20.3734H24.6378C24.0943 20.3734 23.6535 20.8142 23.6535 21.3577C23.6535 21.9012 24.0943 22.3419 24.6378 22.3419ZM6.92126 34.1529C6.37776 34.1529 5.93701 34.5937 5.93701 35.1372C5.93701 35.6807 6.37776 36.1214 6.92126 36.1214H13.811C14.3545 36.1214 14.7953 35.6807 14.7953 35.1372C14.7953 34.5937 14.3545 34.1529 13.811 34.1529H6.92126ZM46.6683 32.2789C46.1988 33.6096 46.2008 35.083 46.6683 36.4206C46.8533 36.9502 47.4439 37.2484 48.0433 36.9836L49.1594 36.464C50.4793 35.8518 52 36.7277 52 38.2287V42.4206C52 43.5079 51.1187 44.3892 50.0315 44.3892H44.4695L45.0157 45.5575C45.8091 47.2435 44.8773 49.0655 43.311 49.5988C41.5003 50.2153 39.6143 50.2216 37.8541 49.5984C36.2952 49.0464 35.3566 47.2435 36.1491 45.5579L36.6957 44.3891L31.1339 44.3892C30.0484 44.3892 29.1654 43.5061 29.1654 42.4206V40.9443H27.5906C27.0471 40.9443 26.6063 40.5023 26.6063 39.96C26.6063 39.4177 27.0471 38.9758 27.5906 38.9758H29.1654V38.2291C29.1654 36.7278 30.6862 35.8516 32.0055 36.4636L33.1219 36.9833C33.7216 37.2486 34.3121 36.9501 34.497 36.4208C34.9645 35.0834 34.9661 33.61 34.497 32.2786C34.3298 31.8039 33.7437 31.4351 33.149 31.7035L31.965 32.255C30.6862 32.829 29.1654 31.9781 29.1654 30.4256V26.2789C29.1654 25.1917 30.0467 24.3104 31.1339 24.3104H36.6957L36.1491 23.1417C35.2836 21.0878 36.6083 19.5555 37.8541 19.1011C39.9286 18.3446 41.7717 18.6998 42.3543 18.828V13.7789H3.9685V38.9758H18.697C19.2206 38.9758 19.6787 39.3695 19.7143 39.8917C19.7532 40.4647 19.2972 40.9443 18.7324 40.9443H2.98425C2.44065 40.9443 2 40.5036 2 39.96V6.88916C2 5.25835 3.32195 3.9364 4.95276 3.9364H41.3701C43.0009 3.9364 44.3228 5.25835 44.3228 6.88916V19.7148C45.127 20.444 45.6407 21.6599 45.0157 23.1421L44.4695 24.3104H50.0315C51.1187 24.3104 52 25.1917 52 26.2789V30.4256C52 31.9777 50.4793 32.8291 49.2008 32.2553L48.0167 31.7031C47.4213 31.4354 46.8356 31.8035 46.6683 32.2789ZM42.3543 11.8104V6.88916C42.3543 6.34644 41.9128 5.90491 41.3701 5.90491H4.95276C4.41004 5.90491 3.9685 6.34644 3.9685 6.88916V11.8104H42.3543ZM44.812 31.6224C45.4695 29.7622 47.5266 29.2661 48.8474 29.9187L50.0315 30.4708V26.2789H44.4695C42.9321 26.2789 42.1083 24.6736 42.687 23.4768L43.2333 22.3075C43.4941 21.6785 43.1483 21.1393 42.6575 20.9581C41.3574 20.4782 39.7667 20.5068 38.5076 20.958C38.0154 21.1343 37.6712 21.6784 37.9323 22.3079L38.4788 23.4766C39.0571 24.674 38.2332 26.279 36.6957 26.279H31.1339V30.4705L32.3179 29.9191C33.6389 29.2666 35.6964 29.762 36.3529 31.6222C36.9738 33.3817 36.9838 35.3216 36.3529 37.0775C35.8487 38.4806 34.1786 39.5982 32.3179 38.7806L31.134 38.2292L31.1339 42.4206H36.6957C38.23 42.4206 39.0619 44.024 38.4788 45.223L37.9323 46.3917C37.6522 47.0022 38.0335 47.5979 38.5076 47.7416C39.9445 48.1769 41.0812 48.2341 42.6575 47.7416C43.1307 47.5937 43.5128 47.0024 43.2333 46.3922L42.687 45.2229C42.1033 44.0241 42.935 42.4207 44.4695 42.4207H50.0315V38.2288L48.8474 38.781C46.9862 39.5979 45.3169 38.4808 44.812 37.0772C44.1811 35.3212 44.1919 33.3813 44.812 31.6224Z" fill="#FFC876"/>
</svg>
