<svg width="32" height="32" viewBox="0 0 32 32" fill="none" xmlns="http://www.w3.org/2000/svg">
<g clip-path="url(#clip0)">
<path d="M3.77953 4.38893C3.77953 4.73683 3.49751 5.01885 3.14961 5.01885C2.8017 5.01885 2.51969 4.73683 2.51969 4.38893C2.51969 4.04102 2.8017 3.759 3.14961 3.759C3.49751 3.759 3.77953 4.04102 3.77953 4.38893ZM6.61417 4.38893C6.61417 4.73683 6.33216 5.01885 5.98425 5.01885C5.63635 5.01885 5.35433 4.73683 5.35433 4.38893C5.35433 4.04102 5.63635 3.759 5.98425 3.759C6.33216 3.759 6.61417 4.04102 6.61417 4.38893ZM9.44882 4.38893C9.44882 4.73683 9.1668 5.01885 8.8189 5.01885C8.47099 5.01885 8.18898 4.73683 8.18898 4.38893C8.18898 4.04102 8.47099 3.759 8.8189 3.759C9.1668 3.759 9.44882 4.04102 9.44882 4.38893ZM13.5433 23.6645C13.1955 23.6645 12.9134 23.9473 12.9134 24.2944C12.9134 24.6415 13.1955 24.9244 13.5433 24.9244C13.8904 24.9244 14.1732 24.6415 14.1732 24.2944C14.1732 23.9473 13.8904 23.6645 13.5433 23.6645ZM12.5984 9.42829V18.6881C12.5984 19.036 12.3163 19.3181 11.9685 19.3181H3.14961C2.80176 19.3181 2.51969 19.036 2.51969 18.6881V9.42829C2.51969 9.08045 2.80176 8.79837 3.14961 8.79837H11.9685C12.3163 8.79837 12.5984 9.08045 12.5984 9.42829ZM11.3386 10.0582H3.77953V18.0582H11.3386V10.0582ZM14.4882 10.4992H20.9764C21.3242 10.4992 21.6063 10.2171 21.6063 9.86924C21.6063 9.5214 21.3242 9.23932 20.9764 9.23932H14.4882C14.1403 9.23932 13.8583 9.5214 13.8583 9.86924C13.8583 10.2171 14.1403 10.4992 14.4882 10.4992ZM14.4882 13.0188H19.7165C20.0644 13.0188 20.3465 12.7368 20.3465 12.3889C20.3465 12.0411 20.0644 11.759 19.7165 11.759H14.4882C14.1403 11.759 13.8583 12.0411 13.8583 12.3889C13.8583 12.7368 14.1403 13.0188 14.4882 13.0188ZM3.14961 20.5779C2.80176 20.5779 2.51969 20.86 2.51969 21.2078C2.51969 21.5557 2.80176 21.8377 3.14961 21.8377H7.55906C7.9069 21.8377 8.18898 21.5557 8.18898 21.2078C8.18898 20.86 7.9069 20.5779 7.55906 20.5779H3.14961ZM28.5877 19.3785C28.2872 20.2302 28.2885 21.1732 28.5877 22.0292C28.7061 22.3681 29.0841 22.559 29.4677 22.3896L30.182 22.057C31.0268 21.6651 32 22.2258 32 23.1864V25.8692C32 26.565 31.436 27.1291 30.7402 27.1291H27.1805L27.5301 27.8768C28.0378 28.9559 27.4414 30.122 26.4391 30.4633C25.2802 30.8578 24.0731 30.8619 22.9466 30.463C21.9489 30.1097 21.3482 28.9559 21.8554 27.877L22.2052 27.129L18.6457 27.1291C17.951 27.1291 17.3858 26.5639 17.3858 25.8692V24.9244H16.378C16.0302 24.9244 15.748 24.6415 15.748 24.2944C15.748 23.9473 16.0302 23.6645 16.378 23.6645H17.3858V23.1867C17.3858 22.2258 18.3592 21.665 19.2035 22.0567L19.918 22.3894C20.3018 22.5591 20.6797 22.3681 20.7981 22.0294C21.0973 21.1734 21.0983 20.2304 20.7981 19.3783C20.6911 19.0745 20.316 18.8385 19.9354 19.0103L19.1776 19.3632C18.3592 19.7306 17.3858 19.186 17.3858 18.1924V15.5385C17.3858 14.8427 17.9499 14.2787 18.6457 14.2787H22.2052L21.8554 13.5307C21.3015 12.2162 22.1493 11.2355 22.9466 10.9447C24.2743 10.4605 25.4539 10.6879 25.8268 10.77V7.53853H1.25984V23.6645H10.6861C11.0212 23.6645 11.3144 23.9165 11.3371 24.2507C11.3621 24.6175 11.0702 24.9244 10.7087 24.9244H0.629921C0.282016 24.9244 0 24.6423 0 24.2944V3.12908C0 2.08537 0.846047 1.23932 1.88976 1.23932H25.1969C26.2406 1.23932 27.0866 2.08537 27.0866 3.12908V11.3375C27.6013 11.8042 27.9301 12.5824 27.5301 13.531L27.1805 14.2787H30.7402C31.436 14.2787 32 14.8427 32 15.5385V18.1924C32 19.1858 31.0268 19.7307 30.2085 19.3634L29.4507 19.01C29.0696 18.8387 28.6948 19.0743 28.5877 19.3785V19.3785ZM25.8268 6.27869V3.12908C25.8268 2.78174 25.5442 2.49916 25.1969 2.49916H1.88976C1.54243 2.49916 1.25984 2.78174 1.25984 3.12908V6.27869H25.8268ZM27.3997 18.9584C27.8205 17.7678 29.137 17.4503 29.9824 17.868L30.7402 18.2214V15.5385H27.1805C26.1965 15.5385 25.6693 14.5111 26.0397 13.7451L26.3893 12.9968C26.5562 12.5943 26.3349 12.2491 26.0208 12.1332C25.1887 11.8261 24.1707 11.8444 23.3648 12.1331C23.0498 12.246 22.8295 12.5942 22.9967 12.9971L23.3465 13.745C23.7165 14.5114 23.1892 15.5386 22.2052 15.5386H18.6457V18.2212L19.4035 17.8682C20.2489 17.4507 21.5657 17.7677 21.9858 18.9582C22.3832 20.0843 22.3896 21.3259 21.9858 22.4496C21.6632 23.3476 20.5943 24.0629 19.4035 23.5396L18.6457 23.1867L18.6457 25.8692H22.2052C23.1872 25.8692 23.7196 26.8954 23.3465 27.6627L22.9967 28.4107C22.8174 28.8015 23.0614 29.1827 23.3648 29.2747C24.2845 29.5533 25.012 29.5899 26.0208 29.2747C26.3237 29.18 26.5682 28.8016 26.3893 28.411L26.0397 27.6627C25.6661 26.8954 26.1984 25.8693 27.1805 25.8693H30.7402V23.1865L29.9824 23.5399C28.7912 24.0627 27.7228 23.3477 27.3997 22.4495C26.9959 21.3256 27.0028 20.084 27.3997 18.9584Z" fill="#E59722"/>
</g>
<defs>
<clipPath id="clip0">
<rect width="32" height="32" fill="white"/>
</clipPath>
</defs>
</svg>
