<svg width="53" height="53" viewBox="0 0 53 53" fill="none" xmlns="http://www.w3.org/2000/svg">
<path d="M46.5265 41.0803L44.5081 40.3795C45.638 39.4846 46.3647 38.1021 46.3647 36.5522V35.0729C46.3647 32.3812 44.1747 30.1912 41.4831 30.1912C38.7914 30.1912 36.6014 32.3812 36.6014 35.0729V36.5522C36.6014 38.1021 37.3285 39.4846 38.4584 40.3795L36.4397 41.0803C35.145 41.53 34.0566 42.3548 33.2773 43.4065H27.8246V41.2546C27.8246 38.4222 26.0267 35.895 23.3511 34.9661L21.3323 34.2653C22.4622 33.3704 23.1893 31.9879 23.1893 30.438V28.9587C23.1893 26.2667 20.9993 24.077 18.3077 24.077C15.616 24.077 13.426 26.267 13.426 28.9587V30.438C13.426 31.9879 14.1531 33.3704 15.2826 34.2653L13.2642 34.9661C10.5886 35.895 8.79075 38.4222 8.79075 41.2546V43.4065H1.73967C1.33112 43.4065 1 43.7376 1 44.1461V50.2603C1 50.6689 1.33112 51 1.73967 51H32.509C32.5422 51 32.575 50.9969 32.6074 50.9928C32.6398 50.9969 32.6726 51 32.7062 51H50.2603C50.6689 51 51 50.6689 51 50.2603V47.3688C51 44.5368 49.2025 42.0095 46.5265 41.0803V41.0803ZM38.0807 35.0729C38.0807 33.1968 39.607 31.6706 41.4831 31.6706C43.3591 31.6706 44.8854 33.1968 44.8854 35.0729V36.5522C44.8854 38.4283 43.3591 39.9545 41.4831 39.9545C39.607 39.9545 38.0807 38.4283 38.0807 36.5522V35.0729ZM14.9053 28.9587C14.9053 27.0826 16.4316 25.5564 18.3077 25.5564C20.1837 25.5564 21.71 27.0826 21.71 28.9587V30.438C21.71 32.3141 20.1837 33.8404 18.3077 33.8404C16.4316 33.8404 14.9053 32.3141 14.9053 30.438V28.9587ZM19.8595 35.3197L20.5782 35.5692L18.3077 39.5086L16.0371 35.5692L16.7558 35.3197H19.8595ZM10.2701 41.2546C10.2701 39.0516 11.6686 37.0859 13.7495 36.3634L14.6146 36.0632L17.6668 41.3595C17.7988 41.5888 18.0433 41.7299 18.3077 41.7299C18.572 41.7299 18.8165 41.5888 18.9485 41.3595L22.0007 36.0632L22.8658 36.3634C24.9467 37.0859 26.3448 39.0516 26.3448 41.2546V43.4065H10.2701V41.2546ZM2.47934 44.8858H32.4483C32.1363 45.6598 31.9665 46.4998 31.9665 47.3688V49.5207H2.47934V44.8858ZM49.5206 49.5207H33.4459V47.3688C33.4459 45.1658 34.844 43.2005 36.9249 42.4776L39.9312 41.4339H43.0349L46.0412 42.4776C48.1225 43.2005 49.5206 45.1658 49.5206 47.3688V49.5207Z" fill="#FD7A57"/>
<path d="M46.3155 6.32531H38.8021C38.3935 6.32531 38.0624 6.65681 38.0624 7.06498C38.0624 7.47354 38.3935 7.80465 38.8021 7.80465H46.3155C48.0829 7.80465 49.5206 9.24241 49.5206 11.0101V21.2663C49.5206 23.0337 48.0829 24.4714 46.3155 24.4714H36.1578C35.7492 24.4714 35.4181 24.8026 35.4181 25.2111V28.3567L31.7499 24.6881C31.611 24.5493 31.423 24.4714 31.2269 24.4714H25.2111C23.4438 24.4714 22.0056 23.0337 22.0056 21.2663V11.0098C22.0056 9.24241 23.4434 7.80465 25.2111 7.80465H35.3441C35.7526 7.80465 36.0837 7.47354 36.0837 7.06498C36.0837 6.65643 35.7526 6.32531 35.3441 6.32531H31.4733V5.68445C31.4733 3.10152 29.3718 1 26.7889 1H5.68445C3.10152 1 1 3.10152 1 5.68445V7.31981C1 7.72836 1.33112 8.05947 1.73967 8.05947C2.14822 8.05947 2.47934 7.72836 2.47934 7.31981V5.68445C2.47934 3.9171 3.9171 2.47934 5.68445 2.47934H26.7889C28.5562 2.47934 29.994 3.9171 29.994 5.68445V6.32531H25.2111C22.6282 6.32531 20.5267 8.42683 20.5267 11.0098V19.1457H12.7851C12.3766 19.1457 12.0454 19.4769 12.0454 19.8854V23.031L8.37724 19.3624C8.23838 19.2236 8.05032 19.1457 7.85424 19.1457H5.68445C3.9171 19.1457 2.47934 17.708 2.47934 15.9406V10.7591C2.47934 10.3506 2.14822 10.0195 1.73967 10.0195C1.33112 10.0195 1 10.3506 1 10.7591V15.9406C1 18.5239 3.10152 20.6251 5.68445 20.6251H7.54754L12.2621 25.3397C12.4036 25.4812 12.5929 25.5563 12.7851 25.556C12.8805 25.556 12.9766 25.5376 13.0682 25.4999C13.3444 25.3854 13.5248 25.1157 13.5248 24.8167V20.6251H20.5267V21.2663C20.5267 23.8493 22.6282 25.9504 25.2111 25.9504H30.9206L35.6348 30.665C35.7763 30.8065 35.9655 30.8816 36.1578 30.8816C36.2531 30.8816 36.3492 30.8633 36.4408 30.8252C36.717 30.7108 36.8974 30.4411 36.8974 30.142V25.9504H46.3155C48.8985 25.9504 51 23.8493 51 21.2663V11.0098C51 8.42683 48.8985 6.32531 46.3155 6.32531Z" fill="#FD7A57"/>
</svg>
