<svg width="20" height="20" viewBox="0 0 20 20" fill="none" xmlns="http://www.w3.org/2000/svg">
<g clip-path="url(#clip0)">
<path d="M19.4552 14.679L16.6641 11.8879C15.6673 10.8911 13.9727 11.2899 13.574 12.5857C13.275 13.4828 12.2782 13.9812 11.381 13.7818C9.38741 13.2834 6.69603 10.6917 6.19763 8.59844C5.89859 7.70127 6.49667 6.70446 7.3938 6.40546C8.68965 6.00674 9.08837 4.31217 8.09156 3.31536L5.3005 0.5243C4.50306 -0.173465 3.30689 -0.173465 2.60912 0.5243L0.71519 2.41823C-1.17874 4.41185 0.914551 9.69492 5.59954 14.3799C10.2845 19.0649 15.5676 21.2579 17.5612 19.2643L19.4552 17.3703C20.153 16.5729 20.153 15.3767 19.4552 14.679Z" fill="#DDDDDD"/>
</g>
<defs>
<clipPath id="clip0">
<rect width="20" height="20" fill="white" transform="translate(0 0.000976562)"/>
</clipPath>
</defs>
</svg>
