<svg width="53" height="53" viewBox="0 0 53 53" fill="none" xmlns="http://www.w3.org/2000/svg">
<path d="M4.28281 17.7547L3.12734 19.6992L7.30078 23.8727L9.24531 22.7164C9.49297 22.8313 9.74375 22.9359 9.99219 23.0289L10.5492 25.2188H16.4516L17.0086 23.0297C17.257 22.9367 17.5078 22.8328 17.7555 22.7172L19.7 23.8734L23.8734 19.7L22.718 17.7555C22.8328 17.5078 22.9375 17.2578 23.0305 17.0086L25.2188 16.4508V10.5484L23.0297 9.99141C22.9367 9.74219 22.832 9.49219 22.7172 9.24375L23.8727 7.29922L19.6992 3.12578L17.7547 4.28203C17.507 4.16719 17.2562 4.0625 17.0078 3.96953L16.4508 1.78125H10.5484L9.99219 3.97031C9.74375 4.06328 9.49297 4.16719 9.24531 4.28281L7.30078 3.12656L3.12734 7.3L4.28281 9.24453C4.16797 9.49297 4.06328 9.74219 3.97031 9.99219L1.78125 10.5492V16.4516L3.97031 17.0086C4.06328 17.2578 4.16797 17.507 4.28281 17.7547V17.7547ZM3.34375 11.7633L5.18281 11.2953L5.31406 10.8828C5.45391 10.4469 5.63906 10.0039 5.86484 9.56797L6.06406 9.18281L5.09063 7.54609L7.54609 5.09063L9.18281 6.06406L9.56719 5.86563C10.0047 5.63984 10.4469 5.45547 10.8844 5.31563L11.2969 5.18359L11.7633 3.34375H15.2359L15.7031 5.18281L16.1156 5.31484C16.5531 5.45469 16.9953 5.63906 17.4328 5.86484L17.8172 6.06328L19.4539 5.08984L21.9094 7.54531L20.9359 9.18203L21.1352 9.56719C21.3609 10.0039 21.5461 10.4461 21.6859 10.882L21.8172 11.2945L23.6562 11.7633V15.2359L21.8172 15.7039L21.6859 16.1164C21.5461 16.5531 21.3609 16.9953 21.1359 17.4312L20.9359 17.8164L21.9094 19.4539L19.4539 21.9094L17.8172 20.9359L17.4328 21.1344C16.9953 21.3602 16.5531 21.5445 16.1156 21.6844L15.7031 21.8164L15.2367 23.6562H11.7641L11.2969 21.8172L10.8844 21.6852C10.4469 21.5453 10.0047 21.3609 9.56719 21.1352L9.18281 20.9367L7.54609 21.9102L5.09063 19.4547L6.06406 17.8172L5.86406 17.432C5.63906 16.9961 5.45391 16.5539 5.31406 16.1172L5.18281 15.7047L3.34375 15.2367V11.7633Z" fill="#1692BA"/>
<path d="M13.5 20.5312C17.3773 20.5312 20.5312 17.3766 20.5312 13.5C20.5312 9.62344 17.3773 6.46875 13.5 6.46875C9.62266 6.46875 6.46875 9.62344 6.46875 13.5C6.46875 17.3766 9.62266 20.5312 13.5 20.5312ZM13.5 8.03125C16.5148 8.03125 18.9688 10.4844 18.9688 13.5C18.9688 16.5156 16.5148 18.9688 13.5 18.9688C10.4852 18.9688 8.03125 16.5156 8.03125 13.5C8.03125 10.4844 10.4852 8.03125 13.5 8.03125Z" fill="#1692BA"/>
<path d="M46.3125 42.4062H24.2531L20.1 44.4828C19.4023 44.8313 18.9688 45.5328 18.9688 46.3125C18.9688 47.0922 19.4023 47.7937 20.0992 48.1422L24.2531 50.2188H46.3125C48.4664 50.2188 50.2188 48.4664 50.2188 46.3125C50.2188 44.1586 48.4664 42.4062 46.3125 42.4062ZM25.2188 47.0938H43.9688V48.6562H25.2188V47.0938ZM43.9688 45.5312H25.2188V43.9688H43.9688V45.5312ZM20.5312 46.3125C20.5312 46.1281 20.6336 45.9633 20.7984 45.8805L23.6562 44.4516V48.1734L20.7984 46.7445C20.6336 46.6617 20.5312 46.4969 20.5312 46.3125V46.3125ZM46.3125 48.6562H45.5312V43.9688H46.3125C47.6047 43.9688 48.6562 45.0203 48.6562 46.3125C48.6562 47.6047 47.6047 48.6562 46.3125 48.6562Z" fill="#1692BA"/>
<path d="M42.4062 12.7188H42.2953C41.9461 11.375 40.7336 10.375 39.2812 10.375C37.8289 10.375 36.6164 11.375 36.2672 12.7188H26.7812V14.2812H36.2672C36.6164 15.625 37.8289 16.625 39.2812 16.625C40.7336 16.625 41.9461 15.625 42.2953 14.2812H42.4062C45.8523 14.2812 48.6562 17.0852 48.6562 20.5312V25.2188C48.6562 28.6648 45.8523 31.4688 42.4062 31.4688H39.9516C39.6023 30.125 38.3898 29.125 36.9375 29.125C35.4852 29.125 34.2727 30.125 33.9234 31.4688H29.0141C28.6648 30.125 27.4523 29.125 26 29.125C24.5477 29.125 23.3352 30.125 22.9859 31.4688H18.0766C17.7273 30.125 16.5148 29.125 15.0625 29.125C13.6102 29.125 12.3977 30.125 12.0484 31.4688H9.59375C5.28594 31.4688 1.78125 34.9734 1.78125 39.2812C1.78125 43.5891 5.28594 47.0938 9.59375 47.0938H17.4062V45.5312H9.59375C6.14766 45.5312 3.34375 42.7273 3.34375 39.2812C3.34375 35.8352 6.14766 33.0312 9.59375 33.0312H12.0484C12.3977 34.375 13.6102 35.375 15.0625 35.375C16.5148 35.375 17.7273 34.375 18.0766 33.0312H22.9859C23.3352 34.375 24.5477 35.375 26 35.375C27.4523 35.375 28.6648 34.375 29.0141 33.0312H33.9234C34.2727 34.375 35.4852 35.375 36.9375 35.375C38.3898 35.375 39.6023 34.375 39.9516 33.0312H42.4062C46.7141 33.0312 50.2188 29.5266 50.2188 25.2188V20.5312C50.2188 16.2234 46.7141 12.7188 42.4062 12.7188V12.7188ZM39.2812 15.0625C38.4195 15.0625 37.7188 14.3617 37.7188 13.5C37.7188 12.6383 38.4195 11.9375 39.2812 11.9375C40.143 11.9375 40.8438 12.6383 40.8438 13.5C40.8438 14.3617 40.143 15.0625 39.2812 15.0625ZM15.0625 33.8125C14.2008 33.8125 13.5 33.1117 13.5 32.25C13.5 31.3883 14.2008 30.6875 15.0625 30.6875C15.9242 30.6875 16.625 31.3883 16.625 32.25C16.625 33.1117 15.9242 33.8125 15.0625 33.8125ZM26 33.8125C25.1383 33.8125 24.4375 33.1117 24.4375 32.25C24.4375 31.3883 25.1383 30.6875 26 30.6875C26.8617 30.6875 27.5625 31.3883 27.5625 32.25C27.5625 33.1117 26.8617 33.8125 26 33.8125ZM36.9375 33.8125C36.0758 33.8125 35.375 33.1117 35.375 32.25C35.375 31.3883 36.0758 30.6875 36.9375 30.6875C37.7992 30.6875 38.5 31.3883 38.5 32.25C38.5 33.1117 37.7992 33.8125 36.9375 33.8125Z" fill="#1692BA"/>
<path d="M26.7812 18.1875H37.7188V19.75H26.7812V18.1875Z" fill="#1692BA"/>
<path d="M26.7812 21.3125H37.7188V22.875H26.7812V21.3125Z" fill="#1692BA"/>
<path d="M33.0312 24.4375H34.5938V26H33.0312V24.4375Z" fill="#1692BA"/>
<path d="M29.9062 24.4375H31.4688V26H29.9062V24.4375Z" fill="#1692BA"/>
<path d="M36.1562 24.4375H37.7188V26H36.1562V24.4375Z" fill="#1692BA"/>
<path d="M26.7812 24.4375H28.3438V26H26.7812V24.4375Z" fill="#1692BA"/>
<path d="M14.2812 38.5H15.8438V40.0625H14.2812V38.5Z" fill="#1692BA"/>
<path d="M11.1562 38.5H12.7188V40.0625H11.1562V38.5Z" fill="#1692BA"/>
<path d="M4.90625 38.5H6.46875V40.0625H4.90625V38.5Z" fill="#1692BA"/>
<path d="M8.03125 38.5H9.59375V40.0625H8.03125V38.5Z" fill="#1692BA"/>
</svg>
