<svg width="16" height="16" viewBox="0 0 16 16" fill="none" xmlns="http://www.w3.org/2000/svg">
<g clip-path="url(#clip0)">
<path d="M16 3.03998C15.405 3.30098 14.771 3.47398 14.11 3.55798C14.79 3.15198 15.309 2.51398 15.553 1.74498C14.919 2.12298 14.219 2.38998 13.473 2.53898C12.871 1.89798 12.013 1.50098 11.077 1.50098C9.261 1.50098 7.799 2.97498 7.799 4.78198C7.799 5.04198 7.821 5.29198 7.875 5.52998C5.148 5.39698 2.735 4.08998 1.114 2.09898C0.831 2.58998 0.665 3.15198 0.665 3.75698C0.665 4.89298 1.25 5.89998 2.122 6.48298C1.595 6.47298 1.078 6.31998 0.64 6.07898C0.64 6.08898 0.64 6.10198 0.64 6.11498C0.64 7.70898 1.777 9.03298 3.268 9.33798C3.001 9.41098 2.71 9.44598 2.408 9.44598C2.198 9.44598 1.986 9.43398 1.787 9.38998C2.212 10.689 3.418 11.644 4.852 11.675C3.736 12.548 2.319 13.074 0.785 13.074C0.516 13.074 0.258 13.062 0 13.029C1.453 13.966 3.175 14.501 5.032 14.501C11.068 14.501 14.368 9.50098 14.368 5.16698C14.368 5.02198 14.363 4.88198 14.356 4.74298C15.007 4.28098 15.554 3.70398 16 3.03998Z" fill="#BABABA"/>
</g>
<defs>
<clipPath id="clip0">
<rect width="16" height="16" fill="white" transform="translate(0 0.000976562)"/>
</clipPath>
</defs>
</svg>
