<svg width="1920" height="275" viewBox="0 0 1920 275" fill="none" xmlns="http://www.w3.org/2000/svg">
<path d="M1920 95.9641L1866.67 135.999C1813.33 175.433 1706.67 256.402 1600 271.846C1493.33 287.89 1386.67 239.908 1280 191.927C1173.33 143.946 1066.67 95.964 960 119.955C853.333 143.945 746.667 239.908 640 231.961C533.333 223.415 426.667 112.458 320 88.0171C213.333 64.4761 106.667 127.452 53.3334 159.989L7.26255e-06 191.927L2.40412e-05 0.000991816L53.3334 0.000996479C106.667 0.00100114 213.333 0.00101047 320 0.00101979C426.667 0.00102912 533.333 0.00103844 640 0.00104777C746.667 0.00105709 853.333 0.00106642 960 0.00107574C1066.67 0.00108507 1173.33 0.00109439 1280 0.00110372C1386.67 0.00111304 1493.33 0.00112237 1600 0.00113169C1706.67 0.00114102 1813.33 0.00115034 1866.67 0.00115501L1920 0.00115967L1920 95.9641Z" fill="white"/>
</svg>
