<svg width="119" height="122" viewBox="0 0 119 122" fill="none" xmlns="http://www.w3.org/2000/svg">
<path d="M106.112 64C107.575 81.0529 106.445 97.886 73.5878 94.0891C40.7306 90.2922 5.45529 89.1808 22.2059 54.9794C38.9565 20.778 57.9404 1.01978 74.0922 14.3584C90.2441 27.6971 104.649 46.9486 106.112 64Z" fill="#9EC5FF"/>
<path d="M53.625 42.8751H52.6875V43.8126H53.625V42.8751Z" fill="#468EFB"/>
<path d="M55.5 42.8751H54.5625V43.8126H55.5V42.8751Z" fill="#468EFB"/>
<path d="M57.375 42.8751H56.4375V43.8126H57.375V42.8751Z" fill="#468EFB"/>
<path d="M74.7188 41.0001H51.2812C50.9083 41.0001 50.5506 41.1483 50.2869 41.412C50.0232 41.6757 49.875 42.0334 49.875 42.4064V43.8126H49.4062C49.0333 43.8126 48.6756 43.9608 48.4119 44.2245C48.1482 44.4882 48 44.8459 48 45.2189V67.7189C48 68.0918 48.1482 68.4495 48.4119 68.7132C48.6756 68.977 49.0333 69.1251 49.4062 69.1251H71.9062C72.2792 69.1251 72.6369 68.977 72.9006 68.7132C73.1643 68.4495 73.3125 68.0918 73.3125 67.7189V67.2501H74.7188C75.0917 67.2501 75.4494 67.102 75.7131 66.8382C75.9768 66.5745 76.125 66.2168 76.125 65.8439V42.4064C76.125 42.0334 75.9768 41.6757 75.7131 41.412C75.4494 41.1483 75.0917 41.0001 74.7188 41.0001ZM51.2812 41.9376H74.7188C74.8431 41.9376 74.9623 41.987 75.0502 42.0749C75.1381 42.1628 75.1875 42.2821 75.1875 42.4064V44.7501H50.8125V42.4064C50.8125 42.2821 50.8619 42.1628 50.9498 42.0749C51.0377 41.987 51.1569 41.9376 51.2812 41.9376ZM49.4062 44.7501H49.875V47.5626H48.9375V45.2189C48.9375 45.0946 48.9869 44.9753 49.0748 44.8874C49.1627 44.7995 49.2819 44.7501 49.4062 44.7501ZM72.375 67.7189C72.375 67.8432 72.3256 67.9624 72.2377 68.0503C72.1498 68.1382 72.0306 68.1876 71.9062 68.1876H49.4062C49.2819 68.1876 49.1627 68.1382 49.0748 68.0503C48.9869 67.9624 48.9375 67.8432 48.9375 67.7189V48.5001H49.875V65.8439C49.875 66.2168 50.0232 66.5745 50.2869 66.8382C50.5506 67.102 50.9083 67.2501 51.2812 67.2501H72.375V67.7189ZM74.7188 66.3126H51.2812C51.1569 66.3126 51.0377 66.2632 50.9498 66.1753C50.8619 66.0874 50.8125 65.9682 50.8125 65.8439V45.6876H75.1875V65.8439C75.1875 65.9682 75.1381 66.0874 75.0502 66.1753C74.9623 66.2632 74.8431 66.3126 74.7188 66.3126Z" fill="#468EFB"/>
<path d="M63 46.6251C61.1458 46.6251 59.3332 47.175 57.7915 48.2051C56.2498 49.2352 55.0482 50.6994 54.3386 52.4125C53.6291 54.1255 53.4434 56.0105 53.8051 57.8291C54.1669 59.6477 55.0598 61.3181 56.3709 62.6292C57.682 63.9404 59.3525 64.8332 61.171 65.195C62.9896 65.5567 64.8746 65.3711 66.5877 64.6615C68.3007 63.9519 69.7649 62.7503 70.795 61.2086C71.8252 59.6669 72.375 57.8543 72.375 56.0001C72.3722 53.5146 71.3835 51.1317 69.626 49.3741C67.8684 47.6166 65.4855 46.628 63 46.6251ZM63 64.4376C60.8455 64.4342 58.7738 63.6069 57.2095 62.1253C55.6453 60.6437 54.7068 58.62 54.5864 56.4689H55.5V55.5314H54.5864C54.6908 53.6225 55.4439 51.8065 56.7211 50.384L57.3652 51.0286L58.0284 50.3653L57.3839 49.7212C58.8064 48.444 60.6224 47.6909 62.5313 47.5865V48.5001H63.4688V47.5865C65.3776 47.6909 67.1936 48.444 68.6161 49.7212L67.9716 50.3653L68.6348 51.0286L69.2813 50.384C70.5576 51.8069 71.3098 53.6228 71.4136 55.5314H70.5V56.4689H71.4136C71.2932 58.62 70.3548 60.6437 68.7905 62.1253C67.2262 63.6069 65.1545 64.4342 63 64.4376Z" fill="#468EFB"/>
<path d="M71.4375 42.8751H59.25V43.8126H71.4375V42.8751Z" fill="#468EFB"/>
<path d="M69.1603 54.5986L67.9031 54.419C67.8181 54.1548 67.7118 53.8978 67.5853 53.6507L68.3466 52.6354C68.4142 52.5452 68.4471 52.4335 68.4391 52.321C68.4311 52.2084 68.3827 52.1026 68.303 52.0228L66.9773 50.6972C66.8976 50.6174 66.7917 50.569 66.6792 50.561C66.5666 50.553 66.455 50.5859 66.3647 50.6536L65.3494 51.4148C65.1023 51.2884 64.8453 51.1821 64.5811 51.097L64.4016 49.8398C64.3855 49.7282 64.3298 49.626 64.2446 49.5521C64.1593 49.4783 64.0503 49.4376 63.9375 49.4376H62.0625C61.9497 49.4376 61.8407 49.4783 61.7554 49.5521C61.6702 49.626 61.6145 49.7282 61.5984 49.8398L61.4189 51.097C61.1546 51.182 60.8977 51.2883 60.6506 51.4148L59.6353 50.6536C59.545 50.5859 59.4334 50.553 59.3208 50.561C59.2083 50.569 59.1024 50.6174 59.0227 50.6972L57.697 52.0228C57.6173 52.1026 57.5689 52.2084 57.5609 52.321C57.5529 52.4335 57.5858 52.5452 57.6534 52.6354L58.4147 53.6507C58.2882 53.8978 58.1819 54.1548 58.0969 54.419L56.8397 54.5986C56.728 54.6146 56.6259 54.6703 56.552 54.7556C56.4781 54.8408 56.4375 54.9498 56.4375 55.0626V56.9376C56.4375 57.0504 56.4781 57.1594 56.552 57.2447C56.6259 57.3299 56.728 57.3857 56.8397 57.4017L58.0969 57.5812C58.1819 57.8455 58.2882 58.1024 58.4147 58.3495L57.6534 59.3648C57.5858 59.4551 57.5529 59.5667 57.5609 59.6793C57.5689 59.7918 57.6173 59.8977 57.697 59.9775L59.0227 61.3031C59.1024 61.3829 59.2083 61.4312 59.3208 61.4392C59.4334 61.4472 59.545 61.4144 59.6353 61.3467L60.6506 60.5854C60.8977 60.712 61.1546 60.8182 61.4189 60.9032L61.5984 62.1604C61.6145 62.2721 61.6702 62.3742 61.7554 62.4481C61.8407 62.522 61.9497 62.5626 62.0625 62.5626H63.9375C64.0503 62.5626 64.1593 62.522 64.2446 62.4481C64.3298 62.3742 64.3855 62.2721 64.4016 62.1604L64.5811 60.9032C64.8453 60.8182 65.1023 60.7119 65.3494 60.5854L66.3647 61.3467C66.455 61.4144 66.5666 61.4472 66.6792 61.4392C66.7917 61.4312 66.8976 61.3829 66.9773 61.3031L68.303 59.9775C68.3827 59.8977 68.4311 59.7918 68.4391 59.6793C68.4471 59.5667 68.4142 59.4551 68.3466 59.3648L67.5853 58.3495C67.7118 58.1024 67.8181 57.8455 67.9031 57.5812L69.1603 57.4017C69.272 57.3857 69.3741 57.3299 69.448 57.2447C69.5219 57.1594 69.5625 57.0504 69.5625 56.9376V55.0626C69.5625 54.9498 69.5219 54.8408 69.448 54.7556C69.3741 54.6703 69.272 54.6146 69.1603 54.5986ZM68.625 56.5312L67.4705 56.6962C67.3786 56.7093 67.2926 56.7494 67.2235 56.8114C67.1544 56.8734 67.1053 56.9545 67.0823 57.0445C66.9838 57.4327 66.8299 57.8046 66.6253 58.1489C66.5779 58.2287 66.5553 58.3208 66.5603 58.4135C66.5653 58.5063 66.5977 58.5954 66.6534 58.6697L67.3528 59.6025L66.6028 60.3525L65.6719 59.6536C65.5976 59.5978 65.5085 59.5654 65.4158 59.5604C65.323 59.5554 65.2309 59.578 65.1511 59.6254C64.8068 59.83 64.4349 59.984 64.0467 60.0825C63.9568 60.1054 63.8756 60.1545 63.8136 60.2236C63.7516 60.2927 63.7115 60.3787 63.6984 60.4706L63.5311 61.6251H62.4689L62.3039 60.4706C62.2908 60.3787 62.2507 60.2927 62.1887 60.2236C62.1267 60.1545 62.0456 60.1054 61.9556 60.0825C61.5675 59.984 61.1955 59.83 60.8513 59.6254C60.7714 59.578 60.6793 59.5554 60.5866 59.5604C60.4939 59.5654 60.4047 59.5978 60.3305 59.6536L59.3977 60.3529L58.6477 59.6029L59.347 58.6701C59.4028 58.5959 59.4352 58.5067 59.4402 58.414C59.4452 58.3213 59.4226 58.2292 59.3752 58.1493C59.1705 57.8051 59.0166 57.4331 58.9181 57.045C58.8952 56.955 58.8461 56.8739 58.777 56.8119C58.7079 56.7499 58.6219 56.7098 58.53 56.6967L57.375 56.5312V55.469L58.5295 55.304C58.6214 55.2909 58.7074 55.2508 58.7765 55.1888C58.8456 55.1268 58.8947 55.0457 58.9177 54.9557C59.0162 54.5676 59.1701 54.1956 59.3747 53.8514C59.4221 53.7715 59.4447 53.6794 59.4397 53.5867C59.4347 53.494 59.4023 53.4049 59.3466 53.3306L58.6472 52.3978L59.3972 51.6478L60.33 52.3472C60.4043 52.4029 60.4934 52.4353 60.5861 52.4403C60.6788 52.4453 60.771 52.4227 60.8508 52.3753C61.195 52.1707 61.567 52.0167 61.9552 51.9182C62.0451 51.8953 62.1262 51.8462 62.1883 51.7771C62.2503 51.708 62.2903 51.622 62.3034 51.5301L62.4689 50.3751H63.5311L63.6961 51.5297C63.7092 51.6216 63.7493 51.7075 63.8113 51.7766C63.8733 51.8457 63.9544 51.8948 64.0444 51.9178C64.4325 52.0163 64.8045 52.1702 65.1488 52.3748C65.2286 52.4222 65.3207 52.4449 65.4134 52.4399C65.5061 52.4349 65.5953 52.4024 65.6695 52.3467L66.6023 51.6473L67.3523 52.3973L66.653 53.3301C66.5972 53.4044 66.5648 53.4935 66.5598 53.5862C66.5548 53.679 66.5774 53.7711 66.6248 53.8509C66.8295 54.1952 66.9834 54.5671 67.0819 54.9553C67.1048 55.0452 67.1539 55.1264 67.223 55.1884C67.2921 55.2504 67.3781 55.2905 67.47 55.3036L68.625 55.469V56.5312Z" fill="#468EFB"/>
<path d="M63.4687 54.6801V52.7189H62.5313V54.6801C62.2185 54.7907 61.9549 55.0083 61.787 55.2944C61.6192 55.5805 61.5579 55.9168 61.614 56.2437C61.6701 56.5707 61.84 56.8673 62.0936 57.0811C62.3472 57.2949 62.6683 57.4122 63 57.4122C63.3317 57.4122 63.6528 57.2949 63.9064 57.0811C64.16 56.8673 64.3299 56.5707 64.386 56.2437C64.4421 55.9168 64.3808 55.5805 64.2129 55.2944C64.0451 55.0083 63.7815 54.7907 63.4687 54.6801ZM63 56.4689C62.9073 56.4689 62.8167 56.4414 62.7396 56.3899C62.6625 56.3384 62.6024 56.2652 62.5669 56.1795C62.5315 56.0939 62.5222 55.9996 62.5403 55.9087C62.5583 55.8177 62.603 55.7342 62.6685 55.6687C62.7341 55.6031 62.8176 55.5585 62.9086 55.5404C62.9995 55.5223 63.0937 55.5316 63.1794 55.5671C63.265 55.6025 63.3382 55.6626 63.3897 55.7397C63.4413 55.8168 63.4687 55.9074 63.4687 56.0001C63.4687 56.1244 63.4194 56.2437 63.3315 56.3316C63.2435 56.4195 63.1243 56.4689 63 56.4689Z" fill="#468EFB"/>
</svg>
