<svg width="53" height="53" viewBox="0 0 53 53" fill="none" xmlns="http://www.w3.org/2000/svg">
<path d="M48.583 45.4092C49.1727 44.6798 49.496 43.7712 49.4997 42.8333V41.1667C49.4997 38.8655 47.6342 37 45.333 37C43.0319 37 41.1663 38.8655 41.1663 41.1667V42.8333C41.17 43.7712 41.4933 44.6798 42.083 45.4092C41.0483 45.6016 40.1251 46.1794 39.4997 47.0258C38.8743 46.1794 37.951 45.6016 36.9163 45.4092C37.506 44.6798 37.8294 43.7712 37.833 42.8333V41.1667C37.833 38.8655 35.9675 37 33.6663 37C31.3652 37 29.4997 38.8655 29.4997 41.1667V42.8333C29.5033 43.7712 29.8267 44.6798 30.4163 45.4092C29.3817 45.6016 28.4584 46.1794 27.833 47.0258C27.2076 46.1794 26.2844 45.6016 25.2497 45.4092C25.8394 44.6798 26.1627 43.7712 26.1663 42.8333V41.1667C26.1663 38.8655 24.3008 37 21.9997 37C19.6985 37 17.833 38.8655 17.833 41.1667V42.8333C17.8367 43.7712 18.16 44.6798 18.7497 45.4092C16.7735 45.7707 15.3368 47.491 15.333 49.5V52H16.9997V49.5C16.9997 48.1193 18.1189 47 19.4997 47H24.4997C25.8804 47 26.9997 48.1193 26.9997 49.5V52H28.6663V49.5C28.6663 48.1193 29.7856 47 31.1663 47H36.1663C37.5471 47 38.6663 48.1193 38.6663 49.5V52H40.333V49.5C40.333 48.1193 41.4523 47 42.833 47H47.833C49.2137 47 50.333 48.1193 50.333 49.5V52H51.9997V49.5C51.9959 47.491 50.5592 45.7707 48.583 45.4092ZM24.4997 42.8333C24.4997 44.2141 23.3804 45.3333 21.9997 45.3333C20.6189 45.3333 19.4997 44.2141 19.4997 42.8333V41.1667C19.4997 39.7859 20.6189 38.6667 21.9997 38.6667C23.3804 38.6667 24.4997 39.7859 24.4997 41.1667V42.8333ZM36.1663 42.8333C36.1663 44.2141 35.0471 45.3333 33.6663 45.3333C32.2856 45.3333 31.1663 44.2141 31.1663 42.8333V41.1667C31.1663 39.7859 32.2856 38.6667 33.6663 38.6667C35.0471 38.6667 36.1663 39.7859 36.1663 41.1667V42.8333ZM47.833 42.8333C47.833 44.2141 46.7137 45.3333 45.333 45.3333C43.9523 45.3333 42.833 44.2141 42.833 42.8333V41.1667C42.833 39.7859 43.9523 38.6667 45.333 38.6667C46.7137 38.6667 47.833 39.7859 47.833 41.1667V42.8333Z" fill="#B05FD6"/>
<path d="M22.3048 18.7248C22.2077 18.6864 22.1044 18.6668 22 18.6666H18.6667C18.3162 18.6665 18.0032 18.8857 17.8833 19.215L17 21.6441L16.9708 21.565C16.3348 19.8277 14.6834 18.6708 12.8333 18.6666H12.8117C13.3631 17.9497 13.6636 17.0712 13.6667 16.1666V14.5C13.6667 12.1988 11.8011 10.3333 9.5 10.3333C7.19885 10.3333 5.33333 12.1988 5.33333 14.5V16.1666C5.33635 17.0712 5.63687 17.9497 6.18833 18.6666H6.16667C3.86667 18.6694 2.00271 20.5333 2 22.8333V32.8333C2 33.2935 2.37312 33.6666 2.83333 33.6666H5.33333V41.75L3.80667 44.0375C3.55125 44.4203 3.65448 44.9378 4.0374 45.1932C4.17437 45.2846 4.33531 45.3333 4.5 45.3333H14.5C14.9602 45.3334 15.3334 44.9603 15.3334 44.5001C15.3334 44.3354 15.2847 44.1745 15.1933 44.0375L13.6667 41.75V26.3633L13.8767 26.78C14.7187 28.463 16.7656 29.1448 18.4486 28.3027C19.1945 27.9296 19.7775 27.2958 20.0875 26.5216L21.4408 23.1391L22.7742 19.8058C22.9431 19.3777 22.7329 18.8937 22.3048 18.7248ZM7 14.5C7 13.1193 8.11927 12 9.5 12C10.8807 12 12 13.1193 12 14.5V16.1666C12 17.5474 10.8807 18.6666 9.5 18.6666C8.11927 18.6666 7 17.5474 7 16.1666V14.5ZM5.33333 32H3.66667V30.3333H5.33333V32ZM10.3333 43.6666V33.6666H8.66667V43.6666H6.0575L6.86 42.4625C6.95104 42.3254 6.99969 42.1646 7 42V32H12V42C12.0003 42.1646 12.049 42.3254 12.14 42.4625L12.9425 43.6666H10.3333ZM18.54 25.9066C18.1823 26.799 17.1689 27.2326 16.2765 26.8749C15.8814 26.7165 15.558 26.4189 15.3675 26.0383L13.5833 22.4608C13.3828 22.0465 12.8844 21.8733 12.4701 22.0739C12.1795 22.2147 11.9964 22.5105 12 22.8333V30.3333H7V22.8333C7 22.3731 6.62687 22 6.16667 22C5.70646 22 5.33333 22.3731 5.33333 22.8333V28.6666H3.66667V22.8333C3.66667 21.4526 4.78594 20.3333 6.16667 20.3333H8.66667V28.6666H10.3333V20.3333H12.8333C13.9829 20.3356 15.0092 21.0545 15.4042 22.1341L16.2167 24.3683C16.3736 24.8009 16.8517 25.0244 17.2843 24.8674C17.5164 24.7832 17.6991 24.6004 17.7833 24.3683L18.0383 23.6666H19.4358L18.54 25.9066ZM20.1025 22H18.6442L19.25 20.3333H20.7692L20.1025 22Z" fill="#B05FD6"/>
<path d="M51.1663 7C51.6266 7 51.9997 6.62688 51.9997 6.16667V2.83333C51.9997 2.37312 51.6266 2 51.1663 2H16.1663C15.7061 2 15.333 2.37312 15.333 2.83333V6.16667C15.333 6.62688 15.7061 7 16.1663 7H16.9997V17H18.6663V7H48.6663V25.3333H21.9997V27H32.833V30.6833L27.4163 33.7767L28.243 35.2233L32.833 32.6025V35.3333H34.4997V32.6025L39.083 35.2233L39.9097 33.7767L34.4997 30.6833V27H51.9997V25.3333H50.333V7H51.1663ZM16.9997 5.33333V3.66667H50.333V5.33333H16.9997Z" fill="#B05FD6"/>
<path d="M43.0366 11.1917L39.7033 10.3583L39.2983 11.975L40.8591 12.365L34.5341 16.7925L30.8549 13.8492C30.5636 13.6165 30.1532 13.6055 29.8499 13.8225L24.0166 17.9892L24.9849 19.3442L30.3058 15.5442L33.9799 18.4842C34.2691 18.7159 34.6766 18.7289 34.9799 18.5158L42.0008 13.6008V15.3333H43.6674V12C43.6674 11.6178 43.4073 11.2846 43.0366 11.1917Z" fill="#B05FD6"/>
</svg>
