<svg width="20" height="20" viewBox="0 0 20 20" fill="none" xmlns="http://www.w3.org/2000/svg">
<g clip-path="url(#clip0)">
<path d="M0.435184 14.8964C0.843517 16.3447 2.09268 16.6097 2.17602 16.6606C4.23185 17.2206 15.7552 17.2222 17.8419 16.6606C19.271 16.2472 19.5335 14.9797 19.5827 14.8964C20.1269 12.0014 20.1627 8.22722 19.5577 4.94222L19.5827 5.10555C19.1744 3.65722 17.9252 3.39222 17.8419 3.34138C15.8135 2.79055 4.26018 2.76972 2.17602 3.34138C0.746851 3.75555 0.484351 5.02222 0.435184 5.10555C-0.147316 8.14805 -0.176483 11.6389 0.435184 14.8964ZM8.00685 13.0439V6.96638L13.2285 10.0097L8.00685 13.0439Z" fill="#BABABA"/>
</g>
<defs>
<clipPath id="clip0">
<rect width="20" height="20" fill="white" transform="translate(0 0.000976562)"/>
</clipPath>
</defs>
</svg>
